{"glyphs":{"0":{"ha":817,"x_min":56,"x_max":760,"o":"m 290 838 q 266 772 290 838 q 243 506 243 706 q 290 173 243 306 q 408 40 336 40 q 526 172 481 40 q 572 506 572 304 q 526 840 572 710 q 408 969 481 969 q 290 838 336 969 m 56 506 q 153 883 56 740 q 408 1025 250 1025 q 664 883 568 1025 q 760 506 760 742 q 663 128 760 271 q 408 -14 567 -14 q 153 130 251 -14 q 56 506 56 274 z "},"1":{"ha":478,"x_min":90,"x_max":388,"o":"m 388 0 l 206 0 l 206 765 q 168 801 206 801 l 90 801 l 90 849 q 178 877 132 850 q 257 935 225 904 q 326 990 289 965 q 388 1011 363 1014 l 388 0 z "},"2":{"ha":746,"x_min":47,"x_max":725,"o":"m 353 965 q 185 833 200 965 q 215 789 183 822 q 254 724 246 756 q 230 650 265 681 q 146 631 194 619 q 71 692 94 642 q 61 811 47 743 q 167 966 81 910 q 379 1022 254 1022 q 617 947 526 1022 q 707 750 707 872 q 654 590 707 668 q 526 453 601 513 q 376 342 451 394 q 249 240 301 289 q 196 151 196 190 l 725 151 l 725 0 l 69 0 l 69 97 q 116 216 69 157 q 228 328 163 275 q 360 438 294 381 q 473 576 426 496 q 519 744 519 656 q 474 903 519 842 q 353 965 428 965 z "},"3":{"ha":818,"x_min":26,"x_max":735,"o":"m 635 857 l 369 632 q 633 556 531 638 q 735 342 735 475 q 633 96 735 196 q 376 -12 532 -4 q 358 -13 369 -12 q 340 -14 347 -14 q 140 33 217 -14 q 40 167 63 79 q 49 267 26 222 q 122 322 72 311 q 149 325 139 325 q 216 299 189 325 q 240 236 243 272 q 225 193 238 206 q 199 181 213 181 q 174 174 185 182 q 165 142 164 165 q 213 69 167 97 q 328 42 258 42 q 361 43 350 42 q 496 137 444 53 q 547 340 547 221 q 455 535 547 460 q 225 604 363 610 l 535 858 l 89 858 l 89 1011 l 635 1011 l 635 857 z "},"4":{"ha":767,"x_min":28,"x_max":656,"o":"m 656 0 l 482 0 l 482 246 l 28 246 l 28 356 l 465 1011 l 656 1011 l 656 0 m 113 356 l 482 356 l 482 911 l 113 356 z "},"5":{"ha":744,"x_min":35,"x_max":675,"o":"m 675 346 q 570 95 675 204 q 329 -14 465 -14 q 119 47 203 -14 q 35 196 35 107 q 66 286 35 251 q 144 321 97 321 q 212 299 182 321 q 242 239 242 276 q 229 197 242 210 q 201 184 217 183 q 172 178 185 185 q 160 151 160 171 q 206 74 160 106 q 318 43 251 43 l 332 43 q 447 128 406 47 q 488 350 488 210 q 443 556 488 481 q 324 632 399 632 q 136 535 208 632 l 81 535 l 138 1011 l 629 1011 l 629 858 l 181 858 l 138 622 q 235 681 174 658 q 363 703 297 703 q 589 605 503 703 q 675 346 675 507 z "},"6":{"ha":800,"x_min":69,"x_max":757,"o":"m 271 303 q 306 115 271 188 q 407 42 342 42 q 524 126 478 42 q 569 338 569 210 q 530 530 569 453 q 426 607 490 607 q 314 520 357 607 q 271 303 271 433 m 263 553 q 349 635 294 603 q 472 668 404 668 q 674 575 590 668 q 757 346 757 482 q 653 90 757 194 q 403 -14 550 -14 q 160 102 251 -14 q 69 411 69 218 q 213 829 69 656 q 583 1025 357 1003 l 582 988 q 365 827 463 967 q 263 553 268 688 z "},"7":{"ha":658,"x_min":36,"x_max":638,"o":"m 379 0 l 160 0 q 279 470 157 193 q 538 858 401 747 l 36 858 l 36 1011 l 638 1011 l 638 935 q 379 0 379 600 z "},"8":{"ha":744,"x_min":42,"x_max":701,"o":"m 514 244 q 464 402 514 344 q 324 510 414 460 q 231 274 231 426 q 270 108 231 172 q 372 43 310 43 q 473 99 432 43 q 514 244 514 156 m 376 968 q 287 914 322 968 q 251 783 251 860 q 288 661 251 707 q 392 575 324 615 q 493 789 493 671 q 463 913 493 857 q 376 968 432 968 m 372 -14 q 135 60 229 -14 q 42 247 42 133 q 110 431 42 344 q 279 543 179 517 q 208 585 233 568 q 148 633 182 603 q 98 703 114 664 q 82 789 82 742 q 162 959 82 893 q 367 1025 242 1025 q 574 958 492 1025 q 656 792 656 892 q 454 544 656 642 q 635 447 569 522 q 701 265 701 371 q 609 63 701 140 q 372 -14 517 -14 z "},"9":{"ha":786,"x_min":42,"x_max":715,"o":"m 528 700 q 522 780 528 739 q 503 867 517 821 q 459 942 489 914 q 386 969 429 971 q 274 883 318 968 q 229 669 229 797 q 267 472 229 549 q 365 394 306 394 q 481 483 433 394 q 528 700 528 572 m 522 458 q 446 364 499 399 q 322 329 393 329 q 122 424 201 329 q 42 658 42 518 q 141 919 42 813 q 383 1025 240 1025 q 624 907 532 1025 q 715 600 715 789 q 594 183 715 357 q 257 -14 472 10 l 258 31 q 404 104 340 31 q 497 274 468 178 q 522 458 525 369 z "},"―":{"ha":694,"x_min":0,"x_max":0,"o":""},"‖":{"ha":694,"x_min":0,"x_max":0,"o":""},"‗":{"ha":694,"x_min":0,"x_max":0,"o":""},"‛":{"ha":694,"x_min":0,"x_max":0,"o":""},"‟":{"ha":694,"x_min":0,"x_max":0,"o":""},"‣":{"ha":694,"x_min":0,"x_max":0,"o":""},"․":{"ha":694,"x_min":0,"x_max":0,"o":""},"‥":{"ha":694,"x_min":0,"x_max":0,"o":""},"\u0000":{"ha":0,"x_min":0,"x_max":0,"o":""},"\r":{"ha":347,"x_min":0,"x_max":0,"o":""}," ":{"ha":304,"x_min":0,"x_max":0,"o":""},"!":{"ha":393,"x_min":79,"x_max":315,"o":"m 262 16 q 248 2 262 16 q 196 -11 235 -11 q 130 16 157 -11 q 103 82 103 43 q 130 148 103 121 q 196 175 157 175 q 262 148 235 175 q 289 82 289 121 q 262 16 289 43 m 243 275 l 151 275 q 86 993 151 606 q 113 1058 79 1032 q 197 1083 146 1083 q 282 1058 249 1083 q 308 993 315 1032 q 243 275 243 639 z "},"\"":{"ha":497,"x_min":56,"x_max":442,"o":"m 318 726 l 275 1011 l 442 1011 l 397 726 l 318 726 m 99 726 l 56 1011 l 222 1011 l 178 726 l 99 726 z "},"#":{"ha":969,"x_min":56,"x_max":914,"o":"m 344 585 l 244 331 l 588 331 l 686 585 l 344 585 m 310 643 l 456 1011 l 514 1011 l 368 643 l 710 643 l 856 1011 l 914 1011 l 768 643 l 856 643 l 856 585 l 744 585 l 644 331 l 856 331 l 856 274 l 622 274 l 514 0 l 456 0 l 564 274 l 222 274 l 114 0 l 56 0 l 164 274 l 58 274 l 58 331 l 188 331 l 286 585 l 58 585 l 58 643 l 310 643 z "},"$":{"ha":822,"x_min":49,"x_max":769,"o":"m 442 -106 l 383 -106 l 383 -14 q 168 42 256 -11 q 61 178 81 94 q 72 278 49 233 q 144 333 94 322 q 169 336 161 336 q 242 308 213 336 q 263 244 271 279 q 242 216 258 225 q 212 207 226 207 q 189 198 197 207 q 188 167 181 189 q 257 83 203 117 q 383 46 311 49 l 383 424 q 322 444 342 438 q 265 467 303 451 q 209 497 228 483 q 163 531 190 510 q 123 576 136 553 q 99 633 110 600 q 89 703 89 665 q 167 917 86 825 q 383 1025 249 1008 l 383 1117 l 442 1117 l 442 1028 q 619 981 542 1025 q 724 864 696 936 q 722 753 746 800 q 646 696 697 707 q 621 693 629 693 q 549 721 578 693 q 529 783 521 749 q 549 813 533 804 q 581 821 565 821 q 604 829 596 821 q 607 858 613 838 q 547 932 594 900 q 442 968 499 964 l 442 593 q 631 519 585 546 q 765 299 761 446 q 680 83 769 167 q 442 -12 590 -1 l 442 -106 m 613 232 q 565 334 608 296 q 442 403 521 372 l 442 49 q 567 110 519 60 q 613 232 615 161 m 240 763 q 280 673 243 707 q 383 613 317 639 l 383 964 q 278 888 318 947 q 240 763 238 828 z "},"%":{"ha":885,"x_min":56,"x_max":828,"o":"m 594 358 q 584 330 594 358 q 574 218 574 301 q 594 80 574 135 q 646 25 615 25 q 697 80 676 25 q 718 218 718 135 q 698 359 718 304 q 646 414 678 414 q 594 358 615 414 m 464 218 q 514 388 464 324 q 646 453 564 453 q 778 388 728 453 q 828 218 828 324 q 778 50 828 114 q 646 -14 728 -14 q 514 50 564 -14 q 464 218 464 114 m 186 931 q 176 903 186 931 q 165 792 165 875 q 186 653 165 708 q 238 599 207 599 q 289 653 268 599 q 310 792 310 708 q 290 932 310 878 q 238 986 269 986 q 186 931 207 986 m 615 1011 l 674 1011 l 274 0 l 215 0 l 615 1011 m 56 792 q 106 961 56 897 q 238 1025 156 1025 q 369 961 319 1025 q 419 792 419 897 q 369 624 419 688 q 238 560 319 560 q 106 624 156 560 q 56 792 56 688 z "},"&":{"ha":1036,"x_min":69,"x_max":965,"o":"m 147 926 l 147 1011 l 788 1011 l 788 956 l 331 956 l 808 236 q 846 401 846 314 q 747 663 846 558 q 488 778 649 768 l 488 781 q 678 754 593 785 q 815 669 763 724 q 894 546 867 615 q 922 399 922 476 q 857 164 922 264 l 965 0 l 747 0 l 722 39 q 496 -14 621 -14 q 188 92 307 -14 q 69 368 69 199 q 135 561 69 471 q 299 694 200 651 l 147 926 m 685 96 l 346 619 q 264 382 264 507 q 334 138 264 226 q 528 50 404 50 q 685 96 611 50 z "},"'":{"ha":278,"x_min":56,"x_max":222,"o":"m 99 726 l 56 1011 l 222 1011 l 178 726 l 99 726 z "},"(":{"ha":443,"x_min":56,"x_max":408,"o":"m 408 13 l 408 -14 q 153 128 250 -14 q 56 506 56 271 q 152 883 56 740 q 408 1025 249 1025 l 408 997 q 290 856 336 997 q 243 506 243 714 q 290 156 243 300 q 408 13 336 13 z "},")":{"ha":443,"x_min":35,"x_max":388,"o":"m 35 -14 l 35 13 q 153 156 107 13 q 200 506 200 300 q 153 856 200 714 q 35 997 107 997 l 35 1025 q 291 883 194 1025 q 388 506 388 740 q 290 128 388 271 q 35 -14 193 -14 z "},"*":{"ha":506,"x_min":56,"x_max":450,"o":"m 267 922 q 333 910 282 915 q 417 890 383 904 q 450 843 450 876 q 433 802 450 818 q 392 786 415 786 q 316 844 358 786 q 260 913 274 903 q 285 835 261 885 q 310 763 310 785 q 293 722 310 738 q 251 707 276 707 q 212 723 228 707 q 196 764 196 739 q 220 835 196 786 q 246 910 244 883 q 190 844 233 901 q 113 786 146 786 q 73 803 90 786 q 56 843 56 819 q 89 890 56 876 q 174 910 122 904 q 240 922 225 915 q 173 935 224 931 q 89 954 122 940 q 56 1001 56 968 q 72 1042 56 1026 q 113 1058 89 1058 q 190 1001 146 1058 q 246 935 233 943 q 220 1010 244 961 q 196 1081 196 1058 q 213 1123 196 1106 q 253 1140 229 1140 q 293 1124 276 1140 q 310 1082 310 1107 q 285 1010 310 1060 q 260 933 261 961 q 317 1001 274 943 q 393 1058 360 1058 q 433 1042 417 1058 q 449 1001 449 1026 q 416 953 449 967 q 333 935 383 940 q 267 922 283 931 z "},"+":{"ha":626,"x_min":56,"x_max":569,"o":"m 283 426 l 283 654 l 342 654 l 342 426 l 569 426 l 569 368 l 342 368 l 342 140 l 283 140 l 283 368 l 56 368 l 56 426 l 283 426 z "},",":{"ha":308,"x_min":46,"x_max":263,"o":"m 77 19 q 61 35 77 19 q 46 96 46 51 q 77 172 46 140 q 153 204 108 204 q 231 172 199 204 q 263 96 263 140 q 215 -33 263 29 q 103 -126 168 -96 l 83 -124 q 153 -12 147 -67 q 77 19 108 -12 z "},"-":{"ha":536,"x_min":56,"x_max":481,"o":"m 481 368 l 56 368 l 56 426 l 481 426 l 481 368 z "},".":{"ha":299,"x_min":42,"x_max":257,"o":"m 42 94 q 73 170 42 139 q 149 201 104 201 q 226 170 194 201 q 257 94 257 139 q 226 17 257 49 q 149 -14 194 -14 q 73 17 104 -14 q 42 94 42 49 z "},"/":{"ha":569,"x_min":56,"x_max":514,"o":"m 56 0 l 456 1011 l 514 1011 l 114 0 l 56 0 z "},":":{"ha":299,"x_min":56,"x_max":242,"o":"m 83 13 q 69 27 83 13 q 56 79 56 40 q 83 145 56 118 q 149 172 110 172 q 215 145 188 172 q 242 79 242 118 q 215 13 242 40 q 149 -14 188 -14 q 83 13 110 -14 m 83 480 q 69 493 83 480 q 56 546 56 507 q 83 612 56 585 q 149 639 110 639 q 215 612 188 639 q 242 546 242 585 q 215 480 242 507 q 149 453 188 453 q 83 480 110 453 z "},";":{"ha":299,"x_min":56,"x_max":242,"o":"m 83 13 q 69 27 83 13 q 56 79 56 40 q 83 145 56 118 q 149 172 110 172 q 215 145 188 172 q 242 79 242 118 q 201 -33 242 21 q 104 -112 160 -86 l 88 -110 q 149 -14 140 -65 q 83 13 110 -14 m 83 480 q 69 493 83 480 q 56 546 56 507 q 83 612 56 585 q 149 639 110 639 q 215 612 188 639 q 242 546 242 585 q 215 480 242 507 q 149 453 188 453 q 83 480 110 453 z "},"<":{"ha":579,"x_min":56,"x_max":524,"o":"m 524 636 l 524 574 l 97 357 l 524 142 l 524 78 l 56 310 l 56 404 l 524 636 z "},"=":{"ha":568,"x_min":56,"x_max":513,"o":"m 513 189 l 56 189 l 56 244 l 513 244 l 513 189 m 513 504 l 56 504 l 56 560 l 513 560 l 513 504 z "},">":{"ha":579,"x_min":56,"x_max":524,"o":"m 482 357 l 56 574 l 56 636 l 524 404 l 524 310 l 56 78 l 56 142 l 482 357 z "},"?":{"ha":663,"x_min":56,"x_max":606,"o":"m 220 13 q 207 27 220 13 q 193 79 193 40 q 220 145 193 118 q 286 172 247 172 q 352 145 325 172 q 379 79 379 118 q 352 13 379 40 q 286 -14 325 -14 q 220 13 247 -14 m 317 282 l 240 282 l 240 357 q 270 497 240 431 q 335 606 300 564 q 399 709 369 647 q 429 838 429 771 q 393 972 429 918 q 300 1025 357 1025 q 235 1005 258 1025 q 206 950 211 985 q 201 881 200 915 q 205 803 201 846 q 207 738 208 760 q 181 735 190 735 q 92 774 129 735 q 56 869 56 813 q 139 1020 56 957 q 333 1083 222 1083 q 529 1017 453 1083 q 606 843 606 951 q 576 728 606 782 q 503 635 546 675 q 419 555 461 594 q 347 463 376 515 q 317 350 317 410 l 317 282 z "},"@":{"ha":1310,"x_min":69,"x_max":1239,"o":"m 481 396 q 501 329 481 356 q 553 303 521 303 q 677 376 613 303 q 782 560 742 449 q 805 734 814 642 q 747 826 796 826 q 628 757 692 826 q 523 585 565 688 q 481 396 481 483 m 1239 664 q 1143 378 1239 497 q 913 258 1047 258 q 771 293 819 258 q 735 399 722 328 q 535 260 639 260 q 403 316 454 260 q 351 458 351 372 q 461 746 351 619 q 711 872 571 872 q 813 831 776 872 q 839 725 850 789 q 879 828 871 811 l 997 825 q 964 752 990 808 q 924 663 938 696 q 892 581 911 631 q 865 487 874 531 q 857 403 857 443 q 931 315 857 315 q 1102 435 1022 315 q 1182 696 1182 556 q 1051 951 1182 849 q 725 1053 919 1053 q 304 882 481 1053 q 128 475 128 711 q 271 130 128 267 q 632 -7 414 -7 q 892 48 767 -7 q 1067 183 1018 103 l 1092 131 q 912 -8 1043 49 q 636 -65 781 -65 q 230 90 390 -65 q 69 482 69 246 q 156 797 69 651 q 393 1026 243 942 q 718 1111 543 1111 q 1090 984 942 1111 q 1239 664 1239 857 z "},"A":{"ha":929,"x_min":22,"x_max":908,"o":"m 85 0 l 22 0 l 382 1011 l 542 1011 l 908 0 l 707 1 l 614 263 l 174 263 l 85 0 m 196 321 l 592 321 l 393 864 l 196 321 z "},"B":{"ha":919,"x_min":113,"x_max":836,"o":"m 432 0 l 113 0 l 113 1011 l 407 1011 q 645 950 557 1011 q 733 783 733 889 q 690 647 733 704 q 565 563 646 590 q 765 468 694 539 q 836 292 836 397 q 731 76 836 153 q 432 0 625 0 m 293 346 l 293 58 l 442 58 q 586 125 529 58 q 643 294 643 192 q 594 466 643 392 q 474 540 544 540 q 293 346 364 540 m 293 953 l 293 449 q 363 549 315 504 q 453 617 411 593 q 527 683 494 642 q 560 781 560 725 q 517 905 560 857 q 407 953 475 953 l 293 953 z "},"C":{"ha":897,"x_min":69,"x_max":849,"o":"m 813 185 l 849 147 q 703 23 772 60 q 517 -14 633 -14 q 200 131 331 -14 q 69 497 69 276 q 194 874 69 726 q 515 1025 318 1022 l 526 1025 q 731 967 647 1025 q 835 811 814 910 q 825 692 849 743 q 750 631 801 642 q 728 628 736 628 q 658 657 686 628 q 640 724 631 686 q 681 789 649 756 q 711 833 713 822 q 663 933 703 897 q 558 968 622 968 l 549 968 q 340 832 422 963 q 257 508 257 701 q 338 186 257 314 q 544 58 419 58 q 813 185 726 58 z "},"D":{"ha":846,"x_min":113,"x_max":775,"o":"m 293 953 l 293 58 l 343 58 q 515 189 443 58 q 588 506 588 319 q 515 822 588 692 q 343 953 443 953 l 293 953 m 343 0 l 113 0 l 113 1011 l 343 1011 q 649 863 522 1011 q 775 506 775 715 q 649 148 775 296 q 343 0 522 0 z "},"E":{"ha":718,"x_min":113,"x_max":633,"o":"m 633 0 l 113 0 l 113 1011 l 633 1011 l 633 874 q 563 933 619 911 q 428 954 507 956 l 293 954 l 293 606 l 483 606 q 569 633 539 606 l 569 524 q 483 551 538 553 l 293 551 l 293 57 l 428 56 q 571 74 521 56 q 633 138 621 92 l 633 0 z "},"F":{"ha":683,"x_min":113,"x_max":633,"o":"m 293 482 l 293 0 l 113 0 l 113 1011 l 633 1011 l 633 874 q 563 933 619 911 q 428 954 507 956 l 293 954 l 293 536 l 483 536 q 569 564 539 536 l 569 454 q 483 482 538 483 l 293 482 z "},"G":{"ha":946,"x_min":69,"x_max":856,"o":"m 856 468 l 856 0 l 682 44 q 489 -14 596 -14 q 186 135 303 -14 q 69 510 69 283 q 196 879 69 733 q 514 1025 322 1025 l 522 1025 q 728 967 644 1025 q 833 811 813 910 q 824 692 847 743 q 749 631 800 642 q 726 628 735 628 q 656 657 683 628 q 639 724 629 686 q 678 789 647 756 q 708 833 710 822 q 650 932 701 896 q 528 968 599 968 q 337 838 414 968 q 260 515 260 707 q 331 179 260 315 q 510 43 403 43 q 605 77 561 43 q 674 169 649 111 l 674 468 l 856 468 z "},"H":{"ha":983,"x_min":113,"x_max":872,"o":"m 293 465 l 293 0 l 113 0 l 113 1011 l 293 1011 l 293 524 l 690 524 l 690 1011 l 872 1011 l 872 0 l 690 0 l 690 465 l 293 465 z "},"I":{"ha":406,"x_min":113,"x_max":293,"o":"m 293 1011 l 293 0 l 113 0 l 113 1011 l 293 1011 z "},"J":{"ha":479,"x_min":28,"x_max":381,"o":"m 208 1014 l 381 1014 l 381 276 q 295 56 381 126 q 28 -14 210 -14 l 28 15 q 208 292 208 15 l 208 1014 z "},"K":{"ha":869,"x_min":113,"x_max":840,"o":"m 293 417 l 293 0 l 113 0 l 113 1014 l 293 1014 l 293 506 l 638 1011 l 706 1011 l 408 583 q 547 552 490 582 q 634 476 604 522 q 683 372 664 429 q 713 256 701 315 q 737 144 724 196 q 775 53 750 93 q 840 0 800 14 q 774 -4 819 0 q 707 -8 729 -8 q 607 22 642 -8 q 557 107 576 50 q 526 227 538 164 q 501 353 515 290 q 457 467 488 417 q 378 538 426 518 l 293 417 z "},"L":{"ha":663,"x_min":113,"x_max":633,"o":"m 633 0 l 113 0 l 113 1011 l 293 1011 l 293 57 l 428 56 q 571 74 521 56 q 633 138 621 92 l 633 0 z "},"M":{"ha":1208,"x_min":111,"x_max":1097,"o":"m 482 63 l 168 900 l 168 0 l 111 0 l 111 1014 l 306 1014 l 629 168 l 924 1014 l 1097 1014 l 1097 0 l 915 0 l 915 832 l 646 63 l 482 63 z "},"N":{"ha":863,"x_min":111,"x_max":750,"o":"m 168 897 l 168 0 l 111 0 l 111 1014 l 314 1014 l 693 110 l 694 1014 l 750 1014 l 750 0 l 549 0 l 168 897 z "},"O":{"ha":1004,"x_min":69,"x_max":935,"o":"m 260 475 q 372 160 283 285 q 561 47 461 35 q 715 203 661 60 q 744 538 769 347 q 632 851 721 726 q 443 964 543 976 q 330 888 378 956 q 263 710 282 819 q 260 475 243 600 m 196 138 q 133 213 196 138 q 69 506 69 289 q 196 874 69 722 q 503 1025 322 1025 q 808 873 681 1025 q 935 506 935 721 q 808 138 935 290 q 503 -14 681 -14 q 196 138 322 -14 z "},"P":{"ha":769,"x_min":113,"x_max":728,"o":"m 113 0 l 113 1011 l 401 1011 q 638 937 549 1011 q 728 742 728 863 q 638 531 728 611 q 401 451 547 451 l 293 451 l 293 0 l 113 0 m 293 501 l 401 501 q 512 567 469 501 q 554 740 554 633 q 512 894 554 835 q 401 953 469 953 l 293 953 l 293 501 z "},"Q":{"ha":1153,"x_min":69,"x_max":1083,"o":"m 263 454 q 390 166 300 281 q 572 51 479 51 q 600 54 581 51 q 740 222 699 75 q 742 557 782 369 q 615 845 704 731 q 433 960 526 960 q 406 957 415 960 q 265 789 307 936 q 263 454 222 642 m 897 -144 q 1069 -64 1011 -144 l 1083 -69 q 985 -226 1049 -167 q 851 -285 921 -285 q 763 -260 808 -285 q 681 -199 718 -235 q 606 -129 643 -164 q 526 -69 568 -94 q 446 -44 485 -44 q 265 -124 372 -44 q 421 -6 346 -21 q 169 172 269 29 q 69 506 69 315 q 196 874 69 722 q 501 1025 322 1025 q 808 873 681 1025 q 935 506 935 721 q 826 162 935 308 q 560 -10 718 15 q 706 -82 594 -19 q 897 -144 818 -144 z "},"R":{"ha":926,"x_min":113,"x_max":843,"o":"m 293 393 l 293 0 l 113 0 l 113 1011 l 425 1011 q 656 942 571 1011 q 742 757 742 872 q 497 518 742 560 q 606 466 563 506 q 668 376 650 426 q 702 265 686 325 q 729 152 718 204 q 769 58 740 100 q 843 0 797 15 q 783 -3 824 0 q 721 -6 742 -6 q 608 22 647 -6 q 563 106 574 47 q 554 228 551 165 q 555 353 557 292 q 525 453 553 414 q 436 492 497 492 q 293 393 342 492 m 293 953 l 293 478 q 371 535 328 514 q 447 567 414 557 q 508 592 479 576 q 553 647 538 608 q 568 754 568 686 q 528 897 568 842 q 424 953 488 953 l 293 953 z "},"S":{"ha":822,"x_min":49,"x_max":769,"o":"m 188 167 q 263 79 203 114 q 399 44 322 44 q 555 97 493 44 q 613 232 617 150 q 580 318 610 282 q 503 376 550 354 q 402 416 457 397 q 292 456 347 435 q 192 507 238 478 q 119 586 147 536 q 89 703 90 636 q 178 928 86 835 q 422 1028 271 1022 l 435 1028 q 617 983 538 1028 q 724 864 696 939 q 722 753 746 800 q 646 696 697 707 q 621 693 629 693 q 549 721 578 693 q 529 783 521 749 q 549 813 533 804 q 581 821 565 821 q 604 829 596 821 q 607 858 613 838 q 539 936 593 903 q 424 969 485 969 l 421 969 q 288 903 340 968 q 240 763 236 838 q 273 681 243 715 q 349 627 303 647 q 449 590 394 607 q 559 552 504 574 q 659 501 614 531 q 734 421 704 472 q 765 299 764 369 q 667 71 769 156 q 397 -14 565 -14 q 172 40 264 -14 q 61 178 81 93 q 72 278 49 233 q 144 333 94 322 q 169 336 161 336 q 242 308 213 336 q 263 244 271 279 q 242 216 258 225 q 212 207 226 207 q 189 198 197 207 q 188 167 181 189 z "},"T":{"ha":717,"x_min":28,"x_max":689,"o":"m 28 874 l 28 1011 l 689 1011 l 689 874 q 618 933 675 911 q 482 954 561 956 l 449 954 l 449 0 l 268 0 l 268 954 l 235 954 q 99 933 156 956 q 28 874 42 911 z "},"U":{"ha":890,"x_min":83,"x_max":807,"o":"m 750 1014 l 807 1014 l 807 313 q 720 58 807 143 q 476 -28 633 -28 q 83 313 83 -28 l 83 1014 l 257 1014 l 257 344 q 313 106 257 176 q 479 35 369 35 q 674 99 599 35 q 750 297 750 163 l 750 1014 z "},"V":{"ha":929,"x_min":22,"x_max":908,"o":"m 222 1010 l 536 144 l 844 1011 l 908 1011 l 549 0 l 389 0 l 22 1011 l 222 1010 z "},"W":{"ha":1622,"x_min":22,"x_max":1600,"o":"m 222 1010 l 536 144 l 781 829 l 714 1011 l 844 1010 l 844 1011 l 908 1011 l 907 1010 l 915 1010 l 1228 144 l 1538 1011 l 1600 1011 l 1240 0 l 1081 0 l 813 742 l 549 0 l 389 0 l 22 1011 l 222 1010 z "},"X":{"ha":892,"x_min":36,"x_max":857,"o":"m 857 0 l 649 0 l 386 421 l 133 0 l 58 0 l 353 474 l 36 1014 l 225 1014 l 472 613 l 715 1014 l 783 1014 l 507 558 l 857 0 z "},"Y":{"ha":840,"x_min":28,"x_max":813,"o":"m 28 1011 l 233 1011 l 500 503 l 746 1014 l 813 1014 l 526 414 l 526 0 l 344 0 l 344 393 l 28 1011 z "},"Z":{"ha":808,"x_min":56,"x_max":753,"o":"m 57 0 l 56 0 l 514 954 l 303 954 q 167 933 224 956 q 97 874 111 911 l 97 1011 l 744 1011 l 297 56 l 547 56 q 683 78 626 56 q 753 138 739 100 l 753 0 l 56 0 l 57 0 z "},"[":{"ha":507,"x_min":97,"x_max":471,"o":"m 97 -106 l 97 1117 l 471 1117 l 471 1058 l 285 1058 l 285 -47 l 471 -47 l 471 -106 l 97 -106 z "},"\\":{"ha":569,"x_min":56,"x_max":514,"o":"m 56 1011 l 114 1011 l 514 0 l 456 0 l 56 1011 z "},"]":{"ha":507,"x_min":35,"x_max":408,"o":"m 408 -106 l 35 -106 l 35 -47 l 221 -47 l 221 1058 l 35 1058 l 35 1117 l 408 1117 l 408 -106 z "},"^":{"ha":444,"x_min":56,"x_max":388,"o":"m 388 832 l 342 832 l 222 1069 l 101 832 l 56 832 l 185 1092 l 260 1092 l 388 832 z "},"_":{"ha":626,"x_min":56,"x_max":569,"o":"m 569 -92 l 56 -92 l 56 -35 l 569 -35 l 569 -92 z "},"`":{"ha":354,"x_min":56,"x_max":299,"o":"m 56 994 l 185 994 l 299 790 l 239 781 l 56 994 z "},"a":{"ha":711,"x_min":42,"x_max":626,"o":"m 453 99 l 453 385 q 326 339 415 360 q 215 175 211 308 q 244 74 217 110 q 318 39 271 39 q 453 99 415 39 m 307 694 q 193 621 201 694 q 215 581 189 592 q 247 551 242 571 q 231 498 254 522 q 175 474 208 474 q 160 475 165 474 q 104 520 124 482 q 92 601 85 558 q 174 701 104 665 q 342 736 243 736 q 556 657 486 736 q 626 432 626 578 l 626 0 l 453 43 q 261 -14 390 -14 q 102 33 163 -14 q 42 156 42 79 q 301 372 42 308 q 453 426 404 399 l 453 506 q 422 651 453 607 q 307 694 390 694 z "},"b":{"ha":782,"x_min":97,"x_max":725,"o":"m 269 643 l 267 99 q 372 35 307 35 q 408 40 393 35 q 507 158 469 64 q 544 388 544 253 q 501 608 544 528 q 383 689 458 689 q 365 688 374 689 q 347 683 356 686 q 331 678 338 681 q 315 670 325 676 q 300 662 304 664 q 284 652 296 660 q 269 643 272 644 m 267 43 l 97 0 l 97 1028 l 269 1028 l 269 693 q 419 736 339 736 q 640 632 556 736 q 725 360 725 528 q 654 101 725 203 q 461 -14 583 0 q 422 -17 436 -17 q 267 43 313 -17 z "},"c":{"ha":714,"x_min":56,"x_max":672,"o":"m 440 39 q 555 66 507 39 q 647 153 603 93 l 672 122 q 410 -14 599 -14 q 157 92 258 -14 q 56 356 56 197 q 157 622 56 511 q 410 738 258 732 l 424 738 q 567 702 508 738 q 638 604 626 667 q 626 521 646 558 q 569 475 607 483 q 503 494 532 468 q 483 553 474 519 q 514 582 488 571 q 536 625 540 593 q 444 694 528 694 l 438 694 q 290 603 343 690 q 236 374 236 515 q 293 132 236 225 q 440 39 350 39 z "},"d":{"ha":782,"x_min":56,"x_max":683,"o":"m 514 99 l 511 643 q 399 689 442 689 q 279 608 322 689 q 236 388 236 528 q 274 158 236 253 q 372 40 311 64 q 408 35 388 35 q 514 99 474 35 m 683 1028 l 683 0 l 514 43 q 358 -17 468 -17 q 319 -14 344 -17 q 126 101 197 0 q 56 360 56 203 q 140 632 56 528 q 361 736 225 736 q 511 693 442 736 l 511 1028 l 683 1028 z "},"e":{"ha":718,"x_min":56,"x_max":672,"o":"m 238 414 l 499 414 q 467 610 504 529 q 378 690 431 690 q 286 612 326 690 q 238 414 246 533 m 425 36 q 542 67 482 36 q 644 153 603 97 l 668 122 q 553 22 631 57 q 394 -14 476 -14 q 154 97 253 -14 q 56 364 56 207 q 150 628 56 519 q 379 736 244 736 q 588 633 504 736 q 672 371 672 531 l 236 371 l 236 364 q 285 119 236 203 q 425 36 335 36 z "},"f":{"ha":532,"x_min":49,"x_max":510,"o":"m 294 738 l 294 722 l 482 722 l 482 681 l 294 681 l 294 0 l 121 0 l 121 681 l 49 681 l 49 722 l 121 722 q 189 922 121 838 q 354 1011 257 1007 l 360 1011 q 489 944 454 1011 q 500 856 510 901 q 457 797 490 811 q 426 790 440 790 q 383 807 401 790 q 364 846 364 824 q 378 876 364 861 q 397 907 393 892 q 398 958 408 938 q 361 978 388 978 l 358 978 q 308 924 322 976 q 294 738 294 872 z "},"g":{"ha":751,"x_min":63,"x_max":692,"o":"m 282 616 q 263 579 282 616 q 243 433 243 542 q 282 251 243 325 q 376 176 321 176 q 469 251 431 176 q 507 433 507 325 q 469 616 507 542 q 376 690 431 690 q 282 616 321 690 m 618 -279 l 618 -221 q 565 -144 611 -169 q 464 -116 519 -119 q 331 -102 408 -112 q 204 -69 253 -92 q 86 47 89 -19 q 163 211 78 150 q 63 433 63 300 q 148 642 63 554 q 356 736 233 729 q 418 847 371 804 q 521 890 465 890 q 619 859 585 890 q 652 793 654 828 q 621 744 650 758 q 592 739 610 739 q 544 754 564 739 q 532 792 524 769 q 528 831 536 808 q 500 854 521 854 q 419 733 436 853 q 610 633 533 718 q 688 433 688 547 q 596 219 688 307 q 376 131 504 131 q 196 185 274 131 q 175 131 167 163 q 241 77 183 93 q 373 56 299 61 q 520 36 447 50 q 642 -26 593 22 q 689 -158 692 -74 q 618 -279 686 -228 z "},"h":{"ha":772,"x_min":97,"x_max":688,"o":"m 271 0 l 97 0 l 97 1028 l 271 1028 l 271 647 q 454 736 343 736 q 623 656 558 736 q 688 446 688 576 l 688 0 l 514 0 l 514 515 q 425 693 514 693 q 330 646 378 693 q 271 542 282 599 l 271 0 z "},"i":{"ha":340,"x_min":76,"x_max":263,"o":"m 76 933 q 103 998 76 971 q 169 1025 131 1025 q 235 998 208 1025 q 263 933 263 971 q 235 867 263 894 q 169 839 208 839 q 103 867 131 839 q 76 933 76 894 m 260 722 l 260 0 l 86 0 l 86 722 l 260 722 z "},"j":{"ha":335,"x_min":-14,"x_max":250,"o":"m -14 -204 l -14 -179 q 71 6 71 -178 l 71 722 l 244 722 l 244 22 q 174 -146 244 -83 q -14 -204 103 -208 m 64 933 q 91 998 64 971 q 157 1025 118 1025 q 223 998 196 1025 q 250 933 250 971 q 223 867 250 894 q 157 839 196 839 q 91 867 118 839 q 64 933 64 894 z "},"k":{"ha":772,"x_min":97,"x_max":751,"o":"m 271 1028 l 271 453 q 565 729 438 540 l 635 729 q 328 442 475 503 q 472 408 414 436 q 558 338 531 379 q 608 247 586 297 q 642 149 629 196 q 682 60 654 103 q 751 -3 710 18 q 702 -5 736 -3 q 651 -7 668 -7 q 556 15 588 -7 q 490 90 517 42 q 449 188 464 139 q 415 285 433 238 q 361 365 397 332 q 271 404 325 399 l 271 0 l 97 0 l 97 1028 l 271 1028 z "},"l":{"ha":369,"x_min":97,"x_max":271,"o":"m 271 1028 l 271 0 l 97 0 l 97 1028 l 271 1028 z "},"m":{"ha":1128,"x_min":97,"x_max":1043,"o":"m 271 515 l 271 0 l 97 0 l 97 722 l 271 722 l 271 644 q 453 736 353 736 q 553 707 507 736 q 628 628 600 678 l 628 631 q 825 736 703 736 q 983 657 924 736 q 1043 446 1043 578 l 1043 0 l 869 0 l 869 525 q 793 693 869 693 q 705 641 751 693 q 658 536 658 589 l 658 0 l 493 0 l 493 529 q 425 693 493 693 q 322 635 372 693 q 271 515 271 576 z "},"n":{"ha":800,"x_min":97,"x_max":715,"o":"m 97 722 l 271 722 l 271 647 q 467 736 347 736 q 647 656 578 736 q 715 446 715 576 l 715 0 l 542 0 l 542 515 q 442 693 542 693 q 337 646 389 693 q 271 542 285 599 l 271 0 l 97 0 l 97 722 z "},"o":{"ha":767,"x_min":56,"x_max":710,"o":"m 241 581 q 226 530 241 581 q 231 340 211 479 q 307 113 250 201 q 426 32 364 24 q 517 143 488 42 q 528 382 547 244 q 451 610 508 521 q 333 690 394 699 q 241 581 271 682 m 151 96 q 103 151 151 96 q 56 361 56 206 q 151 626 56 517 q 383 736 247 736 q 615 626 519 736 q 710 361 710 517 q 615 96 710 206 q 383 -14 519 -14 q 151 96 247 -14 z "},"p":{"ha":749,"x_min":97,"x_max":692,"o":"m 271 633 l 271 54 l 286 54 q 463 140 401 54 q 524 386 524 225 q 483 607 524 525 q 372 689 442 689 q 271 633 311 689 m 97 722 l 271 722 l 271 678 q 413 736 325 736 q 613 638 533 736 q 692 390 692 539 q 581 110 692 219 q 299 0 471 0 l 271 0 l 271 -278 l 97 -278 l 97 722 z "},"q":{"ha":749,"x_min":56,"x_max":650,"o":"m 476 633 q 375 689 436 689 q 265 607 306 689 q 224 386 224 525 q 285 140 224 225 q 461 54 346 54 l 476 54 l 476 633 m 650 722 l 650 -278 l 476 -278 l 476 0 l 449 0 q 166 110 276 0 q 56 390 56 219 q 135 638 56 539 q 335 736 214 736 q 476 678 422 736 l 650 722 z "},"r":{"ha":628,"x_min":97,"x_max":599,"o":"m 271 393 l 271 0 l 97 0 l 97 722 l 271 722 l 271 621 q 454 735 343 735 q 536 710 497 735 q 588 646 575 685 q 582 577 599 610 q 529 539 565 544 q 473 545 500 535 q 446 581 446 556 q 459 604 446 593 q 472 635 472 615 q 458 676 472 660 q 419 692 443 692 q 353 656 383 692 q 307 570 324 621 q 281 472 290 519 q 271 393 271 425 z "},"s":{"ha":653,"x_min":51,"x_max":597,"o":"m 322 -14 q 140 23 210 -14 q 58 122 69 60 q 72 203 51 165 q 128 247 92 240 q 193 229 164 254 q 214 169 222 204 q 201 149 210 156 q 183 143 192 143 q 167 138 174 143 q 160 119 160 132 q 210 56 161 82 q 313 29 258 29 l 319 29 q 408 64 374 31 q 440 140 442 97 q 401 209 439 175 q 309 274 363 243 q 202 339 256 304 q 113 425 149 374 q 78 538 76 476 q 153 680 81 625 q 346 736 225 735 l 351 736 q 507 701 444 736 q 581 604 569 667 q 569 520 589 558 q 513 475 550 482 q 499 474 508 474 q 442 498 465 474 q 426 551 419 522 q 458 581 432 571 q 481 618 485 590 q 363 693 471 693 l 354 693 q 256 664 294 692 q 218 596 218 636 q 257 522 218 558 q 352 451 296 485 q 464 381 408 418 q 558 290 519 343 q 597 174 597 236 q 525 36 597 86 q 322 -14 453 -14 z "},"t":{"ha":449,"x_min":49,"x_max":413,"o":"m 274 171 q 304 64 274 114 q 394 13 335 14 l 394 -14 l 383 -14 q 185 36 268 -14 q 101 186 101 86 l 101 681 l 49 681 l 49 722 l 101 722 q 174 751 142 735 q 223 781 206 767 q 251 808 240 796 q 267 828 263 821 q 274 836 272 836 l 274 722 l 413 722 l 413 681 l 274 681 l 274 171 z "},"u":{"ha":800,"x_min":83,"x_max":701,"o":"m 701 0 l 528 0 l 528 75 q 333 -14 451 -14 q 153 66 222 -14 q 83 276 83 146 l 83 722 l 257 722 l 257 207 q 357 29 257 29 q 462 76 410 29 q 528 181 514 124 l 528 722 l 701 722 l 701 0 z "},"v":{"ha":754,"x_min":21,"x_max":732,"o":"m 669 722 l 732 722 l 454 0 l 283 0 l 21 722 l 214 722 l 435 106 l 669 722 z "},"w":{"ha":1292,"x_min":21,"x_max":1269,"o":"m 1207 722 l 1269 722 l 1007 0 l 835 0 l 647 490 l 468 0 l 297 0 l 21 722 l 214 722 l 449 106 l 615 574 l 558 722 l 751 722 l 988 106 l 1207 722 z "},"x":{"ha":675,"x_min":22,"x_max":654,"o":"m 86 0 l 22 0 l 246 342 l 22 722 l 225 722 l 374 469 l 538 721 l 606 722 l 404 413 l 654 0 l 447 0 l 275 285 l 86 0 z "},"y":{"ha":728,"x_min":21,"x_max":706,"o":"m 643 722 l 706 722 l 449 8 q 434 -34 444 -3 q 417 -83 424 -65 q 397 -133 410 -101 q 372 -183 383 -164 q 341 -226 360 -203 q 303 -263 322 -250 q 256 -285 283 -276 q 200 -294 229 -294 q 121 -258 151 -293 q 89 -174 90 -222 q 117 -92 88 -124 q 186 -61 147 -61 q 247 -90 226 -61 q 253 -110 254 -100 q 249 -129 251 -119 q 244 -147 246 -139 q 245 -160 242 -156 q 260 -167 249 -165 q 330 -132 301 -169 q 386 0 358 -94 l 283 0 l 21 722 l 215 722 l 422 106 l 643 722 z "},"z":{"ha":596,"x_min":42,"x_max":554,"o":"m 554 0 l 42 0 l 42 39 l 367 676 l 244 676 q 74 610 104 676 l 74 722 l 543 722 l 543 683 l 219 46 l 356 46 q 554 113 515 46 l 554 0 z "},"{":{"ha":471,"x_min":56,"x_max":435,"o":"m 418 344 q 375 190 418 292 q 332 28 332 88 q 365 -54 332 -17 q 435 -92 397 -92 l 435 -135 q 235 -80 322 -135 q 147 44 147 -25 q 188 190 147 94 q 229 347 229 285 q 179 442 229 403 q 57 482 129 482 l 56 538 q 181 583 129 538 q 229 689 232 628 q 187 855 226 749 q 147 1011 147 961 q 231 1107 147 1068 q 435 1146 314 1146 l 435 1104 q 359 1083 388 1104 q 332 1026 331 1061 q 376 865 333 981 q 418 688 418 750 q 367 569 418 615 q 229 506 315 522 q 367 451 315 493 q 418 344 418 408 z "},"|":{"ha":169,"x_min":56,"x_max":114,"o":"m 114 -106 l 56 -106 l 56 1117 l 114 1117 l 114 -106 z "},"}":{"ha":471,"x_min":35,"x_max":414,"o":"m 35 -92 q 106 -54 72 -92 q 139 28 139 -17 q 95 190 139 88 q 51 344 51 292 q 103 451 51 408 q 242 506 156 493 q 103 569 156 522 q 51 688 51 617 q 94 865 51 750 q 139 1026 138 981 q 112 1083 140 1061 q 35 1104 83 1104 l 35 1146 q 240 1107 156 1146 q 324 1011 324 1068 q 284 855 324 961 q 242 689 244 749 q 290 583 239 628 q 414 538 342 538 l 413 482 q 291 442 340 482 q 242 347 242 403 q 283 190 242 285 q 324 44 324 94 q 236 -80 324 -25 q 35 -135 149 -135 l 35 -92 z "},"~":{"ha":703,"x_min":56,"x_max":646,"o":"m 646 522 q 565 400 599 432 q 468 357 521 357 q 342 388 432 357 q 214 417 253 419 q 56 306 163 413 q 73 345 61 315 q 97 400 85 375 q 128 452 110 425 q 171 494 146 479 q 225 510 196 510 q 297 502 257 510 q 383 483 336 494 q 451 467 429 471 q 504 460 482 460 q 646 522 572 460 z "},"¡":{"ha":336,"x_min":50,"x_max":285,"o":"m 122 446 l 213 446 q 279 -272 213 124 q 252 -337 285 -311 q 168 -362 219 -362 q 83 -337 117 -362 q 57 -272 50 -311 q 122 446 122 82 m 169 732 q 235 705 207 732 q 263 639 263 678 q 235 573 263 600 q 169 546 207 546 q 103 573 131 546 q 75 639 75 600 q 103 705 75 678 q 169 732 131 732 z "},"¢":{"ha":728,"x_min":56,"x_max":672,"o":"m 411 -286 l 353 -286 l 353 -10 q 139 112 222 10 q 56 356 56 214 q 139 600 56 494 q 353 731 222 706 l 353 936 l 411 936 l 411 738 q 563 704 500 740 q 638 604 626 668 q 626 521 646 558 q 569 475 607 483 q 503 494 532 468 q 483 553 474 519 q 514 582 488 571 q 536 625 540 593 q 444 694 528 694 l 438 694 q 411 692 428 694 l 411 42 q 440 39 431 39 q 555 66 507 39 q 647 153 603 93 l 672 122 q 411 -14 599 -14 l 411 -286 m 236 374 q 267 184 236 265 q 353 67 299 103 l 353 669 q 236 374 236 597 z "},"£":{"ha":725,"x_min":56,"x_max":669,"o":"m 389 968 q 244 923 297 968 q 192 810 192 878 q 230 731 192 769 q 327 642 268 692 q 417 547 386 592 l 628 547 l 628 490 l 449 490 q 463 429 458 464 q 381 265 472 350 q 163 136 290 179 l 669 136 l 669 0 l 56 0 l 56 121 q 226 250 146 146 q 290 428 306 354 q 258 490 286 453 l 83 490 l 83 547 l 207 547 q 115 803 104 669 q 204 957 121 892 q 396 1025 288 1022 l 406 1025 q 555 981 490 1025 q 633 874 619 938 q 569 715 660 735 q 544 713 553 713 q 485 736 508 713 q 457 797 461 760 q 461 844 454 817 q 473 891 468 871 q 476 930 478 911 q 453 958 474 949 q 389 968 432 968 z "},"¤":{"ha":458,"x_min":56,"x_max":403,"o":"m 121 433 q 153 352 121 386 q 229 318 185 318 q 307 351 275 318 q 339 433 339 385 q 307 517 339 483 q 229 550 275 550 q 152 517 183 550 q 121 433 121 483 m 350 549 q 394 433 394 500 q 350 319 394 368 l 403 267 l 394 260 l 343 313 q 229 267 293 267 q 117 314 167 267 l 63 261 l 56 269 l 107 321 q 64 433 64 371 q 107 546 64 496 l 56 600 l 63 607 l 117 553 q 229 600 164 600 q 343 556 296 600 l 394 608 l 403 601 l 350 549 z "},"¥":{"ha":840,"x_min":28,"x_max":813,"o":"m 663 99 l 526 99 l 526 0 l 344 0 l 344 99 l 206 99 l 206 154 l 344 154 l 344 393 l 335 414 l 206 414 l 206 468 l 306 468 l 28 1011 l 233 1011 l 500 503 l 746 1014 l 813 1014 l 553 468 l 663 468 l 663 414 l 526 414 l 526 154 l 663 154 l 663 99 z "},"¦":{"ha":169,"x_min":56,"x_max":114,"o":"m 56 456 l 114 456 l 114 -135 l 56 -135 l 56 456 m 114 611 l 56 611 l 56 1015 l 114 1015 l 114 611 z "},"§":{"ha":688,"x_min":49,"x_max":632,"o":"m 217 517 q 233 469 217 493 q 280 424 249 446 q 335 388 311 403 q 398 354 360 374 q 444 331 436 335 q 481 401 482 364 q 468 443 481 424 q 429 483 456 463 q 381 516 403 503 q 319 551 360 529 q 257 586 278 574 q 217 517 217 557 m 514 290 q 632 124 632 213 q 549 -24 632 33 q 338 -86 465 -82 l 318 -86 q 142 -46 213 -86 q 58 64 72 -6 q 69 150 49 111 q 131 197 90 189 q 203 179 171 204 q 225 119 235 154 q 210 99 221 106 q 188 90 199 92 q 171 78 178 88 q 167 51 164 69 q 214 -18 172 7 q 315 -43 256 -43 l 329 -43 q 438 -10 394 -40 q 481 65 482 21 q 438 140 479 104 q 340 205 397 175 q 225 268 282 235 q 129 352 168 301 q 92 463 90 403 q 199 624 94 567 q 92 799 90 701 q 170 942 94 886 q 368 1001 246 999 l 376 1001 q 535 957 469 1001 q 615 838 601 913 q 604 754 625 789 q 542 713 583 719 q 470 730 501 704 q 449 789 439 756 q 481 818 453 807 q 506 863 510 829 q 463 933 500 907 q 372 958 426 958 l 368 958 q 261 927 306 957 q 217 854 217 897 q 260 777 217 814 q 364 710 303 740 q 485 645 425 679 q 589 563 546 611 q 632 460 632 515 q 514 290 632 351 z "},"¨":{"ha":465,"x_min":56,"x_max":410,"o":"m 338 781 q 285 802 307 781 q 263 854 263 824 q 285 906 263 885 q 338 928 307 928 q 388 906 367 928 q 410 854 410 885 q 388 802 410 824 q 338 781 367 781 m 131 781 q 78 802 100 781 q 56 854 56 824 q 78 906 56 885 q 131 928 100 928 q 181 906 160 928 q 203 854 203 885 q 181 802 203 824 q 131 781 160 781 z "},"©":{"ha":1150,"x_min":69,"x_max":1081,"o":"m 833 331 q 734 217 800 260 q 589 175 668 175 q 394 267 471 175 q 318 501 318 358 q 397 742 318 647 q 603 838 476 836 l 607 838 q 740 801 686 838 q 806 704 794 765 q 800 627 815 660 q 753 586 785 594 q 699 599 722 581 q 682 646 675 618 q 699 667 686 661 q 721 681 713 672 q 726 717 729 690 q 697 778 722 756 q 629 801 671 801 l 622 801 q 490 715 542 799 q 438 508 438 632 q 490 303 438 385 q 622 221 543 221 q 727 257 676 221 q 806 347 778 293 l 833 331 m 259 822 q 193 757 259 822 q 128 506 128 692 q 259 189 128 319 q 576 58 390 58 q 892 190 761 58 q 1022 506 1022 321 q 892 822 1022 690 q 576 953 761 953 q 259 822 390 953 m 217 148 q 143 222 217 148 q 69 506 69 296 q 217 863 69 715 q 575 1011 365 1011 q 933 863 785 1011 q 1081 506 1081 715 q 933 148 1081 296 q 575 0 785 0 q 217 148 365 0 z "},"ª":{"ha":400,"x_min":56,"x_max":344,"o":"m 263 786 l 263 917 q 240 906 253 911 q 215 894 228 900 q 196 886 201 889 q 147 808 147 863 q 194 749 147 749 q 263 786 233 749 m 344 721 l 263 754 q 169 714 229 714 q 86 738 117 714 q 56 803 56 763 q 181 914 56 883 q 263 942 233 929 l 263 983 q 196 1082 263 1082 q 143 1065 165 1082 q 124 1026 121 1047 q 140 1010 125 1014 q 157 997 154 1006 q 149 968 161 982 q 118 953 136 954 q 85 965 99 950 q 71 1001 71 979 q 111 1074 71 1043 q 206 1104 151 1104 q 306 1060 268 1104 q 344 946 344 1017 l 344 721 z "},"«":{"ha":581,"x_min":56,"x_max":525,"o":"m 525 443 l 525 397 l 288 278 l 525 157 l 525 111 l 265 240 l 265 315 l 525 443 m 315 443 l 315 397 l 79 278 l 315 157 l 315 111 l 56 240 l 56 315 l 315 443 z "},"¬":{"ha":765,"x_min":56,"x_max":708,"o":"m 650 368 l 56 368 l 56 426 l 708 426 l 708 153 l 650 153 l 650 368 z "},"®":{"ha":1150,"x_min":69,"x_max":1081,"o":"m 482 535 l 568 535 q 635 572 610 535 q 661 672 661 610 q 635 765 661 729 q 568 801 608 801 l 482 801 l 482 535 m 369 182 l 369 839 l 569 839 q 718 794 663 839 q 774 674 774 749 q 733 562 774 606 q 621 507 693 518 q 700 465 671 497 q 740 390 729 432 q 760 305 751 347 q 787 228 768 263 q 840 182 806 193 q 801 181 828 182 q 761 179 775 179 q 688 197 711 179 q 644 269 660 217 q 621 370 628 321 q 585 460 614 419 q 503 503 556 500 l 482 503 l 482 182 l 369 182 m 259 822 q 193 757 259 822 q 128 506 128 692 q 259 189 128 319 q 576 58 390 58 q 892 190 761 58 q 1022 506 1022 321 q 892 822 1022 690 q 576 953 761 953 q 259 822 390 953 m 217 148 q 143 222 217 148 q 69 506 69 296 q 217 863 69 715 q 575 1011 365 1011 q 933 863 785 1011 q 1081 506 1081 715 q 933 148 1081 296 q 575 0 785 0 q 217 148 365 0 z "},"¯":{"ha":426,"x_min":56,"x_max":371,"o":"m 371 781 l 56 781 l 56 838 l 371 838 l 371 781 z "},"°":{"ha":428,"x_min":56,"x_max":372,"o":"m 160 1020 q 150 997 160 1020 q 139 906 139 974 q 160 791 139 838 q 214 744 182 744 q 266 791 244 744 q 288 906 288 838 q 267 1020 288 974 q 214 1067 246 1067 q 160 1020 182 1067 m 102 776 q 79 803 102 776 q 56 906 56 829 q 102 1035 56 982 q 214 1088 149 1088 q 326 1035 279 1088 q 372 906 372 982 q 326 776 372 829 q 214 724 279 724 q 102 776 149 724 z "},"±":{"ha":626,"x_min":56,"x_max":569,"o":"m 540 0 l 85 0 l 85 58 l 540 58 l 540 0 m 283 426 l 283 654 l 342 654 l 342 426 l 569 426 l 569 368 l 342 368 l 342 140 l 283 140 l 283 368 l 56 368 l 56 426 l 283 426 z "},"²":{"ha":535,"x_min":51,"x_max":478,"o":"m 244 986 q 138 903 147 986 q 157 875 138 896 q 182 833 176 854 q 167 788 189 807 q 113 775 144 768 q 66 814 81 782 q 60 889 51 846 q 126 987 72 951 q 261 1022 181 1022 q 411 975 354 1022 q 468 850 468 928 q 417 726 468 788 q 306 626 367 665 q 195 545 246 588 q 144 474 144 503 l 478 474 l 478 378 l 65 378 l 65 439 q 94 514 65 476 q 165 585 124 551 q 249 654 207 618 q 319 740 290 690 q 349 847 349 790 q 320 948 349 910 q 244 986 292 986 z "},"³":{"ha":546,"x_min":50,"x_max":490,"o":"m 428 915 l 264 775 q 427 728 364 779 q 490 596 490 678 q 428 443 490 506 q 268 375 365 381 l 247 375 q 121 403 169 375 q 60 486 72 432 q 65 549 50 521 q 110 583 79 576 q 163 574 140 590 q 183 529 186 557 q 174 503 182 511 q 158 497 167 496 q 143 492 150 497 q 138 472 136 486 q 166 427 139 444 q 235 410 193 410 q 258 411 250 410 q 342 469 310 417 q 374 594 374 521 q 316 715 374 668 q 174 758 258 763 l 367 917 l 89 917 l 89 1011 l 428 1011 l 428 915 z "},"´":{"ha":354,"x_min":56,"x_max":299,"o":"m 56 790 l 169 994 l 299 994 l 115 781 l 56 790 z "},"¶":{"ha":693,"x_min":56,"x_max":636,"o":"m 636 1011 l 636 0 l 578 0 l 578 911 l 490 911 l 490 0 l 419 0 l 419 394 l 326 394 q 133 489 210 394 q 56 711 56 583 q 132 920 56 829 q 315 1011 208 1011 l 636 1011 z "},"·":{"ha":299,"x_min":56,"x_max":242,"o":"m 56 426 q 83 491 56 464 q 149 518 110 518 q 215 491 188 518 q 242 426 242 464 q 215 360 242 388 q 149 332 188 332 q 83 360 110 332 q 56 426 56 388 z "},"¸":{"ha":408,"x_min":56,"x_max":351,"o":"m 107 -119 l 97 -107 l 174 43 l 221 43 l 188 -42 q 246 -36 226 -36 q 322 -76 293 -36 q 351 -169 351 -115 q 301 -278 351 -237 q 175 -318 251 -318 q 56 -279 115 -318 l 92 -250 q 169 -285 132 -285 q 226 -259 206 -285 q 246 -187 246 -233 q 231 -125 246 -151 q 181 -99 215 -99 q 107 -119 149 -99 z "},"¹":{"ha":299,"x_min":56,"x_max":243,"o":"m 243 378 l 128 378 l 128 860 q 104 882 128 882 l 56 882 l 56 911 q 126 940 89 913 q 192 991 163 967 q 243 1014 222 1015 l 243 378 z "},"º":{"ha":428,"x_min":56,"x_max":372,"o":"m 160 1020 q 150 997 160 1020 q 139 906 139 974 q 160 791 139 838 q 214 744 182 744 q 266 791 244 744 q 288 906 288 838 q 267 1020 288 974 q 214 1067 246 1067 q 160 1020 182 1067 m 102 776 q 79 803 102 776 q 56 906 56 829 q 102 1035 56 982 q 214 1088 149 1088 q 326 1035 279 1088 q 372 906 372 982 q 326 776 372 829 q 214 724 279 724 q 102 776 149 724 z "},"»":{"ha":581,"x_min":56,"x_max":525,"o":"m 293 278 l 56 397 l 56 443 l 315 315 l 315 240 l 56 111 l 56 157 l 293 278 m 501 278 l 265 397 l 265 443 l 525 315 l 525 240 l 265 111 l 265 157 l 501 278 z "},"¼":{"ha":878,"x_min":56,"x_max":821,"o":"m 179 0 l 579 1011 l 638 1011 l 238 0 l 179 0 m 821 4 l 713 4 l 713 158 l 428 158 l 428 226 l 703 638 l 821 638 l 821 4 m 243 378 l 128 378 l 128 860 q 104 882 128 882 l 56 882 l 56 911 q 126 940 89 913 q 192 991 163 967 q 243 1014 222 1015 l 243 378 m 481 226 l 713 226 l 713 575 l 481 226 z "},"½":{"ha":1014,"x_min":56,"x_max":957,"o":"m 724 608 q 617 525 628 608 q 636 497 617 518 q 661 456 656 476 q 646 410 668 429 q 592 397 624 390 q 545 436 560 404 q 539 511 531 468 q 606 609 551 574 q 740 644 660 644 q 890 597 833 644 q 946 472 946 550 q 895 349 946 410 q 785 249 844 288 q 674 167 725 210 q 624 96 624 125 l 957 96 l 957 0 l 544 0 l 544 61 q 574 136 544 99 q 644 207 603 174 q 728 276 686 240 q 799 363 769 313 q 828 469 828 413 q 799 570 828 532 q 724 608 771 608 m 243 378 l 128 378 l 128 860 q 104 882 128 882 l 56 882 l 56 911 q 126 940 89 913 q 192 991 163 967 q 243 1014 222 1015 l 243 378 m 179 0 l 579 1011 l 638 1011 l 238 0 l 179 0 z "},"¾":{"ha":1032,"x_min":50,"x_max":975,"o":"m 333 0 l 733 1011 l 792 1011 l 392 0 l 333 0 m 975 4 l 867 4 l 867 158 l 582 158 l 582 226 l 857 638 l 975 638 l 975 4 m 635 226 l 867 226 l 867 575 l 635 226 m 264 775 l 428 915 l 428 1011 l 89 1011 l 89 917 l 365 917 l 174 758 q 316 715 258 763 q 374 594 374 668 q 342 469 374 521 q 258 411 310 417 q 235 410 250 410 q 165 427 193 410 q 136 472 138 444 q 142 492 136 486 q 157 497 149 497 q 174 503 165 496 q 183 529 182 511 q 168 568 185 551 q 126 585 151 585 q 110 583 115 585 q 65 549 79 576 q 58 486 50 522 q 247 375 86 375 l 268 375 q 427 443 364 381 q 490 596 490 506 q 427 728 490 678 q 264 775 364 779 z "},"¿":{"ha":663,"x_min":56,"x_max":606,"o":"m 468 642 q 441 577 468 604 q 375 550 414 550 q 309 577 336 550 q 282 642 282 604 q 309 708 282 681 q 375 736 336 736 q 441 708 414 736 q 468 642 468 681 m 344 440 l 421 440 l 421 365 q 391 225 421 292 q 326 117 361 158 q 262 13 292 75 q 232 -115 232 -50 q 268 -250 232 -196 q 361 -304 304 -304 q 426 -284 403 -304 q 456 -228 450 -264 q 460 -158 461 -193 q 456 -81 460 -124 q 456 -15 453 -37 q 482 -12 472 -12 q 569 -51 532 -12 q 606 -147 606 -90 q 523 -298 606 -235 q 329 -361 440 -361 q 132 -296 208 -361 q 56 -122 56 -231 q 85 -6 56 -60 q 158 88 115 47 q 242 167 200 128 q 315 260 285 207 q 344 372 344 313 l 344 440 z "},"À":{"ha":929,"x_min":22,"x_max":908,"o":"m 85 0 l 22 0 l 382 1011 l 542 1011 l 908 0 l 707 1 l 614 263 l 174 263 l 85 0 m 196 321 l 592 321 l 393 864 l 196 321 m 246 1283 l 375 1283 l 489 1079 l 429 1069 l 246 1283 z "},"Á":{"ha":929,"x_min":22,"x_max":908,"o":"m 85 0 l 22 0 l 382 1011 l 542 1011 l 908 0 l 707 1 l 614 263 l 174 263 l 85 0 m 196 321 l 592 321 l 393 864 l 196 321 m 440 1079 l 554 1283 l 683 1283 l 500 1069 l 440 1079 z "},"Â":{"ha":929,"x_min":22,"x_max":908,"o":"m 85 0 l 22 0 l 382 1011 l 542 1011 l 908 0 l 707 1 l 614 263 l 174 263 l 85 0 m 196 321 l 592 321 l 393 864 l 196 321 m 531 1290 l 671 1090 l 465 1231 l 258 1090 l 399 1290 l 531 1290 z "},"Ã":{"ha":929,"x_min":22,"x_max":908,"o":"m 85 0 l 22 0 l 382 1011 l 542 1011 l 908 0 l 707 1 l 614 263 l 174 263 l 85 0 m 196 321 l 592 321 l 393 864 l 196 321 m 553 1075 q 506 1083 532 1075 q 442 1108 479 1092 q 399 1126 406 1124 q 375 1131 386 1131 q 308 1097 351 1131 q 329 1147 321 1129 q 361 1186 338 1165 q 414 1207 385 1207 q 497 1186 440 1207 l 553 1165 q 585 1161 569 1161 q 658 1189 617 1161 q 636 1139 646 1158 q 603 1097 626 1119 q 553 1075 581 1075 z "},"Ä":{"ha":929,"x_min":22,"x_max":908,"o":"m 85 0 l 22 0 l 382 1011 l 542 1011 l 908 0 l 707 1 l 614 263 l 174 263 l 85 0 m 196 321 l 592 321 l 393 864 l 196 321 m 569 1069 q 517 1091 539 1069 q 494 1143 494 1113 q 517 1195 494 1174 q 569 1217 539 1217 q 620 1195 599 1217 q 642 1143 642 1174 q 620 1091 642 1113 q 569 1069 599 1069 m 363 1069 q 310 1091 332 1069 q 288 1143 288 1113 q 310 1195 288 1174 q 363 1217 332 1217 q 413 1195 392 1217 q 435 1143 435 1174 q 413 1091 435 1113 q 363 1069 392 1069 z "},"Å":{"ha":929,"x_min":22,"x_max":908,"o":"m 85 0 l 22 0 l 382 1011 l 542 1011 l 908 0 l 707 1 l 614 263 l 174 263 l 85 0 m 196 321 l 592 321 l 393 864 l 196 321 m 492 1200 q 486 1207 492 1200 q 465 1214 481 1214 q 438 1200 450 1214 q 425 1168 425 1186 q 438 1136 425 1150 q 465 1122 450 1122 q 492 1136 481 1122 q 504 1168 504 1150 q 492 1200 504 1186 m 465 1069 q 391 1099 422 1069 q 360 1168 360 1128 q 391 1238 360 1208 q 465 1267 422 1267 q 538 1238 507 1267 q 569 1168 569 1208 q 538 1099 569 1128 q 465 1069 507 1069 z "},"Æ":{"ha":1453,"x_min":22,"x_max":1368,"o":"m 85 0 l 22 0 l 382 1011 l 542 1011 l 847 168 l 847 1011 l 1368 1011 l 1368 874 q 1298 933 1354 911 q 1163 954 1242 956 l 1028 954 l 1028 606 l 1218 606 q 1304 633 1274 606 l 1304 524 q 1218 551 1272 553 l 1028 551 l 1028 57 l 1163 56 q 1306 74 1256 56 q 1368 138 1356 92 l 1368 0 l 847 0 l 707 1 l 614 263 l 174 263 l 85 0 m 196 321 l 592 321 l 393 864 l 196 321 z "},"Ç":{"ha":897,"x_min":69,"x_max":849,"o":"m 353 -119 l 342 -107 l 399 3 q 162 181 254 47 q 69 497 69 315 q 194 874 69 726 q 515 1025 318 1022 l 526 1025 q 731 967 647 1025 q 835 811 814 910 q 825 692 849 743 q 750 631 801 642 q 728 628 736 628 q 658 657 686 628 q 640 724 631 686 q 681 789 649 756 q 711 833 713 822 q 663 933 703 897 q 558 968 622 968 l 549 968 q 340 832 422 963 q 257 508 257 701 q 338 186 257 314 q 544 58 419 58 q 813 185 726 58 l 849 147 q 703 23 772 60 q 517 -14 633 -14 q 446 -8 478 -14 l 432 -42 q 492 -36 471 -36 q 568 -76 539 -36 q 597 -169 597 -115 q 547 -278 597 -237 q 421 -318 497 -318 q 300 -279 361 -318 l 336 -250 q 415 -285 376 -285 q 472 -259 451 -285 q 492 -187 492 -233 q 476 -126 492 -153 q 426 -99 461 -99 q 353 -119 394 -99 z "},"È":{"ha":718,"x_min":113,"x_max":633,"o":"m 633 0 l 113 0 l 113 1011 l 633 1011 l 633 874 q 563 933 619 911 q 428 954 507 956 l 293 954 l 293 606 l 483 606 q 569 633 539 606 l 569 524 q 483 551 538 553 l 293 551 l 293 57 l 428 56 q 571 74 521 56 q 633 138 621 92 l 633 0 m 238 1283 l 367 1283 l 481 1079 l 421 1069 l 238 1283 z "},"É":{"ha":718,"x_min":113,"x_max":633,"o":"m 633 0 l 113 0 l 113 1011 l 633 1011 l 633 874 q 563 933 619 911 q 428 954 507 956 l 293 954 l 293 606 l 483 606 q 569 633 539 606 l 569 524 q 483 551 538 553 l 293 551 l 293 57 l 428 56 q 571 74 521 56 q 633 138 621 92 l 633 0 m 238 1079 l 351 1283 l 481 1283 l 297 1069 l 238 1079 z "},"Ê":{"ha":718,"x_min":113,"x_max":633,"o":"m 633 0 l 113 0 l 113 1011 l 633 1011 l 633 874 q 563 933 619 911 q 428 954 507 956 l 293 954 l 293 606 l 483 606 q 569 633 539 606 l 569 524 q 483 551 538 553 l 293 551 l 293 57 l 428 56 q 571 74 521 56 q 633 138 621 92 l 633 0 m 425 1290 l 565 1090 l 360 1231 l 153 1090 l 293 1290 l 425 1290 z "},"Ë":{"ha":718,"x_min":113,"x_max":633,"o":"m 633 0 l 113 0 l 113 1011 l 633 1011 l 633 874 q 563 933 619 911 q 428 954 507 956 l 293 954 l 293 606 l 483 606 q 569 633 539 606 l 569 524 q 483 551 538 553 l 293 551 l 293 57 l 428 56 q 571 74 521 56 q 633 138 621 92 l 633 0 m 464 1069 q 411 1091 433 1069 q 389 1143 389 1113 q 411 1195 389 1174 q 464 1217 433 1217 q 515 1195 493 1217 q 536 1143 536 1174 q 515 1091 536 1113 q 464 1069 493 1069 m 257 1069 q 204 1091 226 1069 q 182 1143 182 1113 q 204 1195 182 1174 q 257 1217 226 1217 q 308 1195 286 1217 q 329 1143 329 1174 q 308 1091 329 1113 q 257 1069 286 1069 z "},"Ì":{"ha":406,"x_min":82,"x_max":324,"o":"m 293 1011 l 293 0 l 113 0 l 113 1011 l 293 1011 m 82 1283 l 210 1283 l 324 1079 l 265 1069 l 82 1283 z "},"Í":{"ha":406,"x_min":82,"x_max":324,"o":"m 293 1011 l 293 0 l 113 0 l 113 1011 l 293 1011 m 82 1079 l 196 1283 l 324 1283 l 140 1069 l 82 1079 z "},"Î":{"ha":406,"x_min":-3,"x_max":408,"o":"m 293 1011 l 293 0 l 113 0 l 113 1011 l 293 1011 m 268 1290 l 408 1090 l 204 1231 l -3 1090 l 138 1290 l 268 1290 z "},"Ï":{"ha":406,"x_min":26,"x_max":379,"o":"m 293 1011 l 293 0 l 113 0 l 113 1011 l 293 1011 m 307 1069 q 254 1091 276 1069 q 232 1143 232 1113 q 254 1195 232 1174 q 307 1217 276 1217 q 358 1195 336 1217 q 379 1143 379 1174 q 358 1091 379 1113 q 307 1069 336 1069 m 101 1069 q 49 1091 71 1069 q 26 1143 26 1113 q 49 1195 26 1174 q 101 1217 71 1217 q 152 1195 131 1217 q 174 1143 174 1174 q 152 1091 174 1113 q 101 1069 131 1069 z "},"Ð":{"ha":846,"x_min":43,"x_max":775,"o":"m 343 0 l 113 0 l 113 438 l 43 438 l 43 496 l 113 496 l 113 1011 l 343 1011 q 649 863 522 1011 q 775 506 775 715 q 649 148 775 296 q 343 0 522 0 m 293 953 l 293 496 l 468 496 l 468 438 l 293 438 l 293 58 l 343 58 q 515 189 443 58 q 588 506 588 319 q 515 822 588 692 q 343 953 443 953 l 293 953 z "},"Ñ":{"ha":863,"x_min":111,"x_max":750,"o":"m 168 897 l 168 0 l 111 0 l 111 1014 l 314 1014 l 693 110 l 694 1014 l 750 1014 l 750 0 l 549 0 l 168 897 m 478 1117 q 431 1125 457 1117 q 367 1149 404 1133 q 324 1168 331 1165 q 300 1172 311 1172 q 233 1139 276 1172 q 254 1189 246 1171 q 286 1228 263 1207 q 339 1249 310 1249 q 422 1228 365 1249 l 478 1207 q 510 1203 494 1203 q 583 1231 542 1203 q 561 1181 571 1200 q 528 1139 551 1161 q 478 1117 506 1117 z "},"Ò":{"ha":1004,"x_min":69,"x_max":935,"o":"m 260 475 q 372 160 283 285 q 561 47 461 35 q 715 203 661 60 q 744 538 769 347 q 632 851 721 726 q 443 964 543 976 q 330 888 378 956 q 263 710 282 819 q 260 475 243 600 m 196 138 q 133 213 196 138 q 69 506 69 289 q 196 874 69 722 q 503 1025 322 1025 q 808 873 681 1025 q 935 506 935 721 q 808 138 935 290 q 503 -14 681 -14 q 196 138 322 -14 m 381 1283 l 510 1283 l 624 1079 l 564 1069 l 381 1283 z "},"Ó":{"ha":1004,"x_min":69,"x_max":935,"o":"m 260 475 q 372 160 283 285 q 561 47 461 35 q 715 203 661 60 q 744 538 769 347 q 632 851 721 726 q 443 964 543 976 q 330 888 378 956 q 263 710 282 819 q 260 475 243 600 m 196 138 q 133 213 196 138 q 69 506 69 289 q 196 874 69 722 q 503 1025 322 1025 q 808 873 681 1025 q 935 506 935 721 q 808 138 935 290 q 503 -14 681 -14 q 196 138 322 -14 m 381 1079 l 494 1283 l 624 1283 l 440 1069 l 381 1079 z "},"Ô":{"ha":1004,"x_min":69,"x_max":935,"o":"m 260 475 q 372 160 283 285 q 561 47 461 35 q 715 203 661 60 q 744 538 769 347 q 632 851 721 726 q 443 964 543 976 q 330 888 378 956 q 263 710 282 819 q 260 475 243 600 m 196 138 q 133 213 196 138 q 69 506 69 289 q 196 874 69 722 q 503 1025 322 1025 q 808 873 681 1025 q 935 506 935 721 q 808 138 935 290 q 503 -14 681 -14 q 196 138 322 -14 m 568 1290 l 708 1090 l 503 1231 l 296 1090 l 436 1290 l 568 1290 z "},"Õ":{"ha":1004,"x_min":69,"x_max":935,"o":"m 260 475 q 372 160 283 285 q 561 47 461 35 q 715 203 661 60 q 744 538 769 347 q 632 851 721 726 q 443 964 543 976 q 330 888 378 956 q 263 710 282 819 q 260 475 243 600 m 196 138 q 133 213 196 138 q 69 506 69 289 q 196 874 69 722 q 503 1025 322 1025 q 808 873 681 1025 q 935 506 935 721 q 808 138 935 290 q 503 -14 681 -14 q 196 138 322 -14 m 576 1089 q 529 1097 556 1089 q 466 1122 503 1106 q 422 1140 429 1138 q 399 1144 410 1144 q 332 1111 375 1144 q 353 1161 344 1143 q 385 1200 361 1179 q 438 1221 408 1221 q 519 1200 464 1221 l 576 1179 q 608 1175 593 1175 q 682 1203 640 1175 q 660 1153 669 1172 q 627 1111 650 1133 q 576 1089 604 1089 z "},"Ö":{"ha":1004,"x_min":69,"x_max":935,"o":"m 260 475 q 372 160 283 285 q 561 47 461 35 q 715 203 661 60 q 744 538 769 347 q 632 851 721 726 q 443 964 543 976 q 330 888 378 956 q 263 710 282 819 q 260 475 243 600 m 196 138 q 133 213 196 138 q 69 506 69 289 q 196 874 69 722 q 503 1025 322 1025 q 808 873 681 1025 q 935 506 935 721 q 808 138 935 290 q 503 -14 681 -14 q 196 138 322 -14 m 607 1069 q 554 1091 576 1069 q 532 1143 532 1113 q 554 1195 532 1174 q 607 1217 576 1217 q 658 1195 636 1217 q 679 1143 679 1174 q 658 1091 679 1113 q 607 1069 636 1069 m 400 1069 q 347 1091 369 1069 q 325 1143 325 1113 q 347 1195 325 1174 q 400 1217 369 1217 q 451 1195 429 1217 q 472 1143 472 1174 q 451 1091 472 1113 q 400 1069 429 1069 z "},"×":{"ha":517,"x_min":56,"x_max":460,"o":"m 258 438 l 419 600 l 460 560 l 299 397 l 460 236 l 419 196 l 258 357 l 96 196 l 56 236 l 217 397 l 56 560 l 96 600 l 258 438 z "},"Ø":{"ha":1004,"x_min":69,"x_max":935,"o":"m 218 -97 l 285 56 q 128 244 186 125 q 69 506 69 363 q 196 874 69 722 q 503 1025 322 1025 q 686 976 601 1025 l 736 1092 l 811 1092 l 744 938 q 883 753 832 867 q 935 506 935 639 q 808 138 935 290 q 503 -14 681 -14 q 344 21 421 -14 l 293 -97 l 218 -97 m 260 475 q 347 200 281 311 l 632 851 q 443 964 543 976 q 330 888 378 956 q 263 710 282 819 q 260 475 243 600 m 744 538 q 675 779 728 671 l 393 133 q 561 47 472 36 q 715 203 661 60 q 744 538 769 347 z "},"Ù":{"ha":890,"x_min":83,"x_max":807,"o":"m 750 1014 l 807 1014 l 807 313 q 720 58 807 143 q 476 -28 633 -28 q 83 313 83 -28 l 83 1014 l 257 1014 l 257 344 q 313 106 257 176 q 479 35 369 35 q 674 99 599 35 q 750 297 750 163 l 750 1014 m 324 1283 l 453 1283 l 567 1079 l 507 1069 l 324 1283 z "},"Ú":{"ha":890,"x_min":83,"x_max":807,"o":"m 750 1014 l 807 1014 l 807 313 q 720 58 807 143 q 476 -28 633 -28 q 83 313 83 -28 l 83 1014 l 257 1014 l 257 344 q 313 106 257 176 q 479 35 369 35 q 674 99 599 35 q 750 297 750 163 l 750 1014 m 324 1079 l 438 1283 l 567 1283 l 383 1069 l 324 1079 z "},"Û":{"ha":890,"x_min":83,"x_max":807,"o":"m 750 1014 l 807 1014 l 807 313 q 720 58 807 143 q 476 -28 633 -28 q 83 313 83 -28 l 83 1014 l 257 1014 l 257 344 q 313 106 257 176 q 479 35 369 35 q 674 99 599 35 q 750 297 750 163 l 750 1014 m 511 1290 l 651 1090 l 446 1231 l 239 1090 l 379 1290 l 511 1290 z "},"Ü":{"ha":890,"x_min":83,"x_max":807,"o":"m 750 1014 l 807 1014 l 807 313 q 720 58 807 143 q 476 -28 633 -28 q 83 313 83 -28 l 83 1014 l 257 1014 l 257 344 q 313 106 257 176 q 479 35 369 35 q 674 99 599 35 q 750 297 750 163 l 750 1014 m 550 1069 q 497 1091 519 1069 q 475 1143 475 1113 q 497 1195 475 1174 q 550 1217 519 1217 q 601 1195 579 1217 q 622 1143 622 1174 q 601 1091 622 1113 q 550 1069 579 1069 m 343 1069 q 290 1091 313 1069 q 268 1143 268 1113 q 290 1195 268 1174 q 343 1217 313 1217 q 394 1195 372 1217 q 415 1143 415 1174 q 394 1091 415 1113 q 343 1069 372 1069 z "},"Ý":{"ha":840,"x_min":28,"x_max":813,"o":"m 28 1011 l 233 1011 l 500 503 l 746 1014 l 813 1014 l 526 414 l 526 0 l 344 0 l 344 393 l 28 1011 m 299 1079 l 413 1283 l 542 1283 l 358 1069 l 299 1079 z "},"Þ":{"ha":778,"x_min":97,"x_max":722,"o":"m 272 1028 l 272 693 q 429 736 338 736 q 639 638 556 736 q 722 390 722 539 q 608 110 722 219 q 315 0 493 0 l 272 0 l 272 -171 l 97 -171 l 97 1028 l 272 1028 m 272 643 l 272 54 l 289 54 q 476 140 411 54 q 540 386 540 225 q 500 607 540 525 q 392 689 460 689 q 343 681 367 689 q 308 667 319 674 q 272 643 297 660 z "},"ß":{"ha":863,"x_min":111,"x_max":783,"o":"m 778 231 q 710 47 783 125 q 538 -31 638 -31 q 388 30 450 -31 q 325 174 325 90 q 385 306 325 253 q 535 358 446 360 q 465 185 465 313 q 490 78 465 113 q 543 44 514 44 q 595 91 575 46 q 606 208 615 136 q 586 287 600 251 q 544 357 572 322 q 492 416 517 392 q 422 485 468 440 q 344 563 375 531 l 375 682 q 460 702 431 672 q 490 793 490 732 q 466 884 490 850 q 403 918 442 918 q 348 897 371 918 q 313 841 325 875 q 297 776 301 807 q 292 715 292 744 l 292 0 l 111 0 l 111 708 q 192 878 111 800 q 408 956 274 956 q 585 902 518 956 q 646 768 653 849 q 591 670 640 703 q 471 638 542 638 q 508 605 474 635 q 550 569 543 575 q 589 534 557 563 q 631 494 621 506 q 666 456 640 483 q 702 413 692 428 q 730 371 713 397 q 755 324 747 344 q 769 279 763 304 q 778 231 776 254 z "},"à":{"ha":711,"x_min":42,"x_max":626,"o":"m 453 99 l 453 385 q 326 339 415 360 q 215 175 211 308 q 244 74 217 110 q 318 39 271 39 q 453 99 415 39 m 307 694 q 193 621 201 694 q 215 581 189 592 q 247 551 242 571 q 231 498 254 522 q 175 474 208 474 q 160 475 165 474 q 104 520 124 482 q 92 601 85 558 q 174 701 104 665 q 342 736 243 736 q 556 657 486 736 q 626 432 626 578 l 626 0 l 453 43 q 261 -14 390 -14 q 102 33 163 -14 q 42 156 42 79 q 301 372 42 308 q 453 426 404 399 l 453 506 q 422 651 453 607 q 307 694 390 694 m 235 994 l 363 994 l 476 790 l 418 781 l 235 994 z "},"á":{"ha":711,"x_min":42,"x_max":626,"o":"m 453 99 l 453 385 q 326 339 415 360 q 215 175 211 308 q 244 74 217 110 q 318 39 271 39 q 453 99 415 39 m 307 694 q 193 621 201 694 q 215 581 189 592 q 247 551 242 571 q 231 498 254 522 q 175 474 208 474 q 160 475 165 474 q 104 520 124 482 q 92 601 85 558 q 174 701 104 665 q 342 736 243 736 q 556 657 486 736 q 626 432 626 578 l 626 0 l 453 43 q 261 -14 390 -14 q 102 33 163 -14 q 42 156 42 79 q 301 372 42 308 q 453 426 404 399 l 453 506 q 422 651 453 607 q 307 694 390 694 m 235 790 l 349 994 l 476 994 l 293 781 l 235 790 z "},"â":{"ha":711,"x_min":42,"x_max":626,"o":"m 453 99 l 453 385 q 326 339 415 360 q 215 175 211 308 q 244 74 217 110 q 318 39 271 39 q 453 99 415 39 m 307 694 q 193 621 201 694 q 215 581 189 592 q 247 551 242 571 q 231 498 254 522 q 175 474 208 474 q 160 475 165 474 q 104 520 124 482 q 92 601 85 558 q 174 701 104 665 q 342 736 243 736 q 556 657 486 736 q 626 432 626 578 l 626 0 l 453 43 q 261 -14 390 -14 q 102 33 163 -14 q 42 156 42 79 q 301 372 42 308 q 453 426 404 399 l 453 506 q 422 651 453 607 q 307 694 390 694 m 421 1001 l 561 801 l 357 942 l 150 801 l 290 1001 l 421 1001 z "},"ã":{"ha":711,"x_min":42,"x_max":626,"o":"m 453 99 l 453 385 q 326 339 415 360 q 215 175 211 308 q 244 74 217 110 q 318 39 271 39 q 453 99 415 39 m 307 694 q 193 621 201 694 q 215 581 189 592 q 247 551 242 571 q 231 498 254 522 q 175 474 208 474 q 160 475 165 474 q 104 520 124 482 q 92 601 85 558 q 174 701 104 665 q 342 736 243 736 q 556 657 486 736 q 626 432 626 578 l 626 0 l 453 43 q 261 -14 390 -14 q 102 33 163 -14 q 42 156 42 79 q 301 372 42 308 q 453 426 404 399 l 453 506 q 422 651 453 607 q 307 694 390 694 m 443 800 q 397 808 424 800 q 332 833 371 817 q 290 851 293 850 q 267 856 278 856 q 199 822 243 856 q 219 872 211 854 q 251 911 228 890 q 304 932 275 932 q 386 911 331 932 l 443 890 q 475 886 460 886 q 550 914 508 886 q 528 864 538 883 q 494 822 518 844 q 443 800 471 800 z "},"ä":{"ha":711,"x_min":42,"x_max":626,"o":"m 453 99 l 453 385 q 326 339 415 360 q 215 175 211 308 q 244 74 217 110 q 318 39 271 39 q 453 99 415 39 m 307 694 q 193 621 201 694 q 215 581 189 592 q 247 551 242 571 q 231 498 254 522 q 175 474 208 474 q 160 475 165 474 q 104 520 124 482 q 92 601 85 558 q 174 701 104 665 q 342 736 243 736 q 556 657 486 736 q 626 432 626 578 l 626 0 l 453 43 q 261 -14 390 -14 q 102 33 163 -14 q 42 156 42 79 q 301 372 42 308 q 453 426 404 399 l 453 506 q 422 651 453 607 q 307 694 390 694 m 460 781 q 407 802 429 781 q 385 854 385 824 q 407 906 385 885 q 460 928 429 928 q 510 906 489 928 q 532 854 532 885 q 510 802 532 824 q 460 781 489 781 m 254 781 q 201 802 224 781 q 179 854 179 824 q 201 906 179 885 q 254 928 224 928 q 305 906 283 928 q 326 854 326 885 q 305 802 326 824 q 254 781 283 781 z "},"å":{"ha":711,"x_min":42,"x_max":626,"o":"m 453 99 l 453 385 q 326 339 415 360 q 215 175 211 308 q 244 74 217 110 q 318 39 271 39 q 453 99 415 39 m 307 694 q 193 621 201 694 q 215 581 189 592 q 247 551 242 571 q 231 498 254 522 q 175 474 208 474 q 160 475 165 474 q 104 520 124 482 q 92 601 85 558 q 174 701 104 665 q 342 736 243 736 q 556 657 486 736 q 626 432 626 578 l 626 0 l 453 43 q 261 -14 390 -14 q 102 33 163 -14 q 42 156 42 79 q 301 372 42 308 q 453 426 404 399 l 453 506 q 422 651 453 607 q 307 694 390 694 m 383 911 q 377 918 383 911 q 356 925 371 925 q 328 911 340 925 q 317 879 317 897 q 328 847 317 861 q 356 833 340 833 q 383 847 371 833 q 394 879 394 861 q 383 911 394 897 m 430 810 q 414 795 430 810 q 356 781 399 781 q 281 810 313 781 q 250 879 250 839 q 281 949 250 919 q 356 978 313 978 q 430 949 399 978 q 461 879 461 919 q 430 810 461 839 z "},"æ":{"ha":1207,"x_min":42,"x_max":1161,"o":"m 914 36 q 1031 67 971 36 q 1133 153 1092 97 l 1157 122 q 1042 22 1119 57 q 883 -14 965 -14 q 626 117 728 -14 l 626 0 l 453 43 q 261 -14 390 -14 q 102 33 163 -14 q 42 156 42 79 q 301 372 42 308 q 453 426 404 399 l 453 506 q 422 651 453 607 q 307 694 390 694 q 193 621 201 694 q 215 581 189 592 q 247 551 242 571 q 231 498 254 522 q 175 474 208 474 q 160 475 165 474 q 104 520 124 482 q 92 601 85 558 q 174 701 104 665 q 342 736 243 736 q 603 579 544 736 q 717 694 647 651 q 868 736 788 736 q 1077 633 993 736 q 1161 371 1161 531 l 725 371 l 725 364 q 774 119 725 203 q 914 36 824 36 m 453 99 l 453 385 q 326 339 415 360 q 215 175 211 308 q 244 74 217 110 q 318 39 271 39 q 453 99 415 39 m 726 414 l 988 414 q 956 610 993 529 q 867 690 919 690 q 775 612 815 690 q 726 414 735 533 z "},"ç":{"ha":714,"x_min":56,"x_max":672,"o":"m 261 -119 l 250 -107 l 306 1 q 124 131 193 35 q 56 356 56 228 q 157 622 56 511 q 410 738 258 732 l 424 738 q 567 702 508 738 q 638 604 626 667 q 626 521 646 558 q 569 475 607 483 q 503 494 532 468 q 483 553 474 519 q 514 582 488 571 q 536 625 540 593 q 444 694 528 694 l 438 694 q 290 603 343 690 q 236 374 236 515 q 293 132 236 225 q 440 39 350 39 q 555 66 507 39 q 647 153 603 93 l 672 122 q 410 -14 599 -14 q 353 -10 382 -14 l 340 -42 q 400 -36 379 -36 q 476 -76 447 -36 q 506 -169 506 -115 q 456 -278 506 -237 q 329 -318 406 -318 q 208 -279 269 -318 l 244 -250 q 324 -285 285 -285 q 380 -259 360 -285 q 400 -187 400 -233 q 385 -126 400 -153 q 335 -99 369 -99 q 261 -119 303 -99 z "},"è":{"ha":718,"x_min":56,"x_max":672,"o":"m 238 414 l 499 414 q 467 610 504 529 q 378 690 431 690 q 286 612 326 690 q 238 414 246 533 m 425 36 q 542 67 482 36 q 644 153 603 97 l 668 122 q 553 22 631 57 q 394 -14 476 -14 q 154 97 253 -14 q 56 364 56 207 q 150 628 56 519 q 379 736 244 736 q 588 633 504 736 q 672 371 672 531 l 236 371 l 236 364 q 285 119 236 203 q 425 36 335 36 m 238 994 l 367 994 l 481 790 l 421 781 l 238 994 z "},"é":{"ha":718,"x_min":56,"x_max":672,"o":"m 238 414 l 499 414 q 467 610 504 529 q 378 690 431 690 q 286 612 326 690 q 238 414 246 533 m 425 36 q 542 67 482 36 q 644 153 603 97 l 668 122 q 553 22 631 57 q 394 -14 476 -14 q 154 97 253 -14 q 56 364 56 207 q 150 628 56 519 q 379 736 244 736 q 588 633 504 736 q 672 371 672 531 l 236 371 l 236 364 q 285 119 236 203 q 425 36 335 36 m 238 790 l 351 994 l 481 994 l 297 781 l 238 790 z "},"ê":{"ha":718,"x_min":56,"x_max":672,"o":"m 238 414 l 499 414 q 467 610 504 529 q 378 690 431 690 q 286 612 326 690 q 238 414 246 533 m 425 36 q 542 67 482 36 q 644 153 603 97 l 668 122 q 553 22 631 57 q 394 -14 476 -14 q 154 97 253 -14 q 56 364 56 207 q 150 628 56 519 q 379 736 244 736 q 588 633 504 736 q 672 371 672 531 l 236 371 l 236 364 q 285 119 236 203 q 425 36 335 36 m 425 1001 l 565 801 l 360 942 l 153 801 l 293 1001 l 425 1001 z "},"ë":{"ha":718,"x_min":56,"x_max":672,"o":"m 238 414 l 499 414 q 467 610 504 529 q 378 690 431 690 q 286 612 326 690 q 238 414 246 533 m 425 36 q 542 67 482 36 q 644 153 603 97 l 668 122 q 553 22 631 57 q 394 -14 476 -14 q 154 97 253 -14 q 56 364 56 207 q 150 628 56 519 q 379 736 244 736 q 588 633 504 736 q 672 371 672 531 l 236 371 l 236 364 q 285 119 236 203 q 425 36 335 36 m 464 781 q 411 802 433 781 q 389 854 389 824 q 411 906 389 885 q 464 928 433 928 q 515 906 493 928 q 536 854 536 885 q 515 802 536 824 q 464 781 493 781 m 257 781 q 204 802 226 781 q 182 854 182 824 q 204 906 182 885 q 257 928 226 928 q 308 906 286 928 q 329 854 329 885 q 308 802 329 824 q 257 781 286 781 z "},"ì":{"ha":271,"x_min":14,"x_max":257,"o":"m 56 722 l 215 722 l 215 0 l 56 0 l 56 722 m 14 994 l 143 994 l 257 790 l 197 781 l 14 994 z "},"í":{"ha":271,"x_min":14,"x_max":257,"o":"m 56 722 l 215 722 l 215 0 l 56 0 l 56 722 m 14 790 l 128 994 l 257 994 l 74 781 l 14 790 z "},"î":{"ha":271,"x_min":-71,"x_max":342,"o":"m 56 722 l 215 722 l 215 0 l 56 0 l 56 722 m 201 1001 l 342 801 l 136 942 l -71 801 l 69 1001 l 201 1001 z "},"ï":{"ha":271,"x_min":-42,"x_max":313,"o":"m 56 722 l 215 722 l 215 0 l 56 0 l 56 722 m 240 781 q 188 802 210 781 q 165 854 165 824 q 188 906 165 885 q 240 928 210 928 q 291 906 269 928 q 313 854 313 885 q 291 802 313 824 q 240 781 269 781 m 33 781 q -19 802 3 781 q -42 854 -42 824 q -19 906 -42 885 q 33 928 3 928 q 84 906 63 928 q 106 854 106 885 q 84 802 106 824 q 33 781 63 781 z "},"ð":{"ha":840,"x_min":69,"x_max":757,"o":"m 564 553 q 461 828 560 688 l 328 744 l 297 794 l 425 874 q 244 988 340 971 l 243 1025 q 510 926 390 1011 l 618 994 l 650 946 l 557 888 q 704 678 651 803 q 757 411 757 554 q 666 102 757 218 q 424 -14 575 -14 q 173 90 276 -14 q 69 346 69 194 q 153 575 69 482 q 356 668 238 668 q 478 635 424 668 q 564 553 532 603 m 556 303 q 513 520 556 433 q 401 607 469 607 q 297 530 338 607 q 257 338 257 453 q 303 126 257 211 q 419 42 350 42 q 520 115 485 42 q 556 303 556 188 z "},"ñ":{"ha":800,"x_min":97,"x_max":715,"o":"m 97 722 l 271 722 l 271 647 q 467 736 347 736 q 647 656 578 736 q 715 446 715 576 l 715 0 l 542 0 l 542 515 q 442 693 542 693 q 337 646 389 693 q 271 542 285 599 l 271 0 l 97 0 l 97 722 m 446 758 q 400 767 426 758 q 335 792 374 775 q 293 810 296 808 q 269 814 281 814 q 201 781 246 814 q 222 831 214 813 q 254 869 231 849 q 307 890 278 890 q 389 869 333 890 l 446 849 q 478 844 463 844 q 553 872 511 844 q 531 822 540 842 q 497 781 521 803 q 446 758 474 758 z "},"ò":{"ha":767,"x_min":56,"x_max":710,"o":"m 241 581 q 226 530 241 581 q 231 340 211 479 q 307 113 250 201 q 426 32 364 24 q 517 143 488 42 q 528 382 547 244 q 451 610 508 521 q 333 690 394 699 q 241 581 271 682 m 151 96 q 103 151 151 96 q 56 361 56 206 q 151 626 56 517 q 383 736 247 736 q 615 626 519 736 q 710 361 710 517 q 615 96 710 206 q 383 -14 519 -14 q 151 96 247 -14 m 263 994 l 390 994 l 504 790 l 446 781 l 263 994 z "},"ó":{"ha":767,"x_min":56,"x_max":710,"o":"m 241 581 q 226 530 241 581 q 231 340 211 479 q 307 113 250 201 q 426 32 364 24 q 517 143 488 42 q 528 382 547 244 q 451 610 508 521 q 333 690 394 699 q 241 581 271 682 m 151 96 q 103 151 151 96 q 56 361 56 206 q 151 626 56 517 q 383 736 247 736 q 615 626 519 736 q 710 361 710 517 q 615 96 710 206 q 383 -14 519 -14 q 151 96 247 -14 m 263 790 l 376 994 l 504 994 l 321 781 l 263 790 z "},"ô":{"ha":767,"x_min":56,"x_max":710,"o":"m 241 581 q 226 530 241 581 q 231 340 211 479 q 307 113 250 201 q 426 32 364 24 q 517 143 488 42 q 528 382 547 244 q 451 610 508 521 q 333 690 394 699 q 241 581 271 682 m 151 96 q 103 151 151 96 q 56 361 56 206 q 151 626 56 517 q 383 736 247 736 q 615 626 519 736 q 710 361 710 517 q 615 96 710 206 q 383 -14 519 -14 q 151 96 247 -14 m 449 1001 l 589 801 l 385 942 l 178 801 l 318 1001 l 449 1001 z "},"õ":{"ha":767,"x_min":56,"x_max":710,"o":"m 241 581 q 226 530 241 581 q 231 340 211 479 q 307 113 250 201 q 426 32 364 24 q 517 143 488 42 q 528 382 547 244 q 451 610 508 521 q 333 690 394 699 q 241 581 271 682 m 151 96 q 103 151 151 96 q 56 361 56 206 q 151 626 56 517 q 383 736 247 736 q 615 626 519 736 q 710 361 710 517 q 615 96 710 206 q 383 -14 519 -14 q 151 96 247 -14 m 429 800 q 383 808 410 800 q 318 833 357 817 q 276 851 279 850 q 253 856 264 856 q 185 822 229 856 q 206 872 197 854 q 238 911 214 890 q 290 932 261 932 q 372 911 317 932 l 429 890 q 461 886 446 886 q 536 914 494 886 q 514 864 524 883 q 481 822 504 844 q 429 800 457 800 z "},"ö":{"ha":767,"x_min":56,"x_max":710,"o":"m 241 581 q 226 530 241 581 q 231 340 211 479 q 307 113 250 201 q 426 32 364 24 q 517 143 488 42 q 528 382 547 244 q 451 610 508 521 q 333 690 394 699 q 241 581 271 682 m 151 96 q 103 151 151 96 q 56 361 56 206 q 151 626 56 517 q 383 736 247 736 q 615 626 519 736 q 710 361 710 517 q 615 96 710 206 q 383 -14 519 -14 q 151 96 247 -14 m 488 781 q 435 802 457 781 q 413 854 413 824 q 435 906 413 885 q 488 928 457 928 q 538 906 517 928 q 560 854 560 885 q 538 802 560 824 q 488 781 517 781 m 282 781 q 229 802 251 781 q 207 854 207 824 q 229 906 207 885 q 282 928 251 928 q 333 906 311 928 q 354 854 354 885 q 333 802 354 824 q 282 781 311 781 z "},"÷":{"ha":626,"x_min":56,"x_max":569,"o":"m 248 13 q 234 27 248 13 q 221 79 221 40 q 248 145 221 118 q 313 172 275 172 q 379 145 351 172 q 407 79 407 118 q 379 13 407 40 q 313 -14 351 -14 q 248 13 275 -14 m 56 300 l 56 358 l 569 358 l 569 300 l 56 300 m 248 480 q 234 493 248 480 q 221 546 221 507 q 248 612 221 585 q 313 639 275 639 q 379 612 351 639 q 407 546 407 585 q 379 480 407 507 q 313 453 351 453 q 248 480 275 453 z "},"ø":{"ha":767,"x_min":56,"x_max":710,"o":"m 154 -139 l 222 33 q 101 169 146 82 q 56 361 56 257 q 151 626 56 517 q 383 736 247 736 q 493 715 442 736 l 554 872 l 613 872 l 540 690 q 664 554 618 642 q 710 361 710 467 q 615 96 710 206 q 383 -14 519 -14 q 271 8 321 -14 l 213 -139 l 154 -139 m 231 340 q 276 171 243 247 l 451 611 q 333 690 393 699 q 241 581 271 682 q 231 340 211 479 m 528 382 q 483 547 515 475 l 310 108 q 426 32 365 24 q 517 143 488 42 q 528 382 547 244 z "},"ù":{"ha":800,"x_min":83,"x_max":701,"o":"m 701 0 l 528 0 l 528 75 q 333 -14 451 -14 q 153 66 222 -14 q 83 276 83 146 l 83 722 l 257 722 l 257 207 q 357 29 257 29 q 462 76 410 29 q 528 181 514 124 l 528 722 l 701 722 l 701 0 m 224 994 l 351 994 l 465 790 l 407 781 l 224 994 z "},"ú":{"ha":800,"x_min":83,"x_max":701,"o":"m 701 0 l 528 0 l 528 75 q 333 -14 451 -14 q 153 66 222 -14 q 83 276 83 146 l 83 722 l 257 722 l 257 207 q 357 29 257 29 q 462 76 410 29 q 528 181 514 124 l 528 722 l 701 722 l 701 0 m 363 790 l 476 994 l 604 994 l 421 781 l 363 790 z "},"û":{"ha":800,"x_min":83,"x_max":701,"o":"m 701 0 l 528 0 l 528 75 q 333 -14 451 -14 q 153 66 222 -14 q 83 276 83 146 l 83 722 l 257 722 l 257 207 q 357 29 257 29 q 462 76 410 29 q 528 181 514 124 l 528 722 l 701 722 l 701 0 m 465 1001 l 606 801 l 401 942 l 194 801 l 335 1001 l 465 1001 z "},"ü":{"ha":800,"x_min":83,"x_max":701,"o":"m 701 0 l 528 0 l 528 75 q 333 -14 451 -14 q 153 66 222 -14 q 83 276 83 146 l 83 722 l 257 722 l 257 207 q 357 29 257 29 q 462 76 410 29 q 528 181 514 124 l 528 722 l 701 722 l 701 0 m 504 781 q 451 802 474 781 q 429 854 429 824 q 451 906 429 885 q 504 928 474 928 q 555 906 533 928 q 576 854 576 885 q 555 802 576 824 q 504 781 533 781 m 299 781 q 246 802 268 781 q 224 854 224 824 q 246 906 224 885 q 299 928 268 928 q 349 906 328 928 q 371 854 371 885 q 349 802 371 824 q 299 781 328 781 z "},"ý":{"ha":728,"x_min":21,"x_max":706,"o":"m 643 722 l 706 722 l 449 8 q 434 -34 444 -3 q 417 -83 424 -65 q 397 -133 410 -101 q 372 -183 383 -164 q 341 -226 360 -203 q 303 -263 322 -250 q 256 -285 283 -276 q 200 -294 229 -294 q 121 -258 151 -293 q 89 -174 90 -222 q 117 -92 88 -124 q 186 -61 147 -61 q 247 -90 226 -61 q 253 -110 254 -100 q 249 -129 251 -119 q 244 -147 246 -139 q 245 -160 242 -156 q 260 -167 249 -165 q 330 -132 301 -169 q 386 0 358 -94 l 283 0 l 21 722 l 215 722 l 422 106 l 643 722 m 354 790 l 468 994 l 596 994 l 413 781 l 354 790 z "},"þ":{"ha":778,"x_min":97,"x_max":722,"o":"m 272 1028 l 272 693 q 429 736 338 736 q 639 638 556 736 q 722 390 722 539 q 608 110 722 219 q 315 0 493 0 l 272 0 l 272 -171 l 97 -171 l 97 1028 l 272 1028 m 272 643 l 272 54 l 289 54 q 476 140 411 54 q 540 386 540 225 q 500 607 540 525 q 392 689 460 689 q 343 681 367 689 q 308 667 319 674 q 272 643 297 660 z "},"ÿ":{"ha":728,"x_min":21,"x_max":706,"o":"m 643 722 l 706 722 l 449 8 q 434 -34 444 -3 q 417 -83 424 -65 q 397 -133 410 -101 q 372 -183 383 -164 q 341 -226 360 -203 q 303 -263 322 -250 q 256 -285 283 -276 q 200 -294 229 -294 q 121 -258 151 -293 q 89 -174 90 -222 q 117 -92 88 -124 q 186 -61 147 -61 q 247 -90 226 -61 q 253 -110 254 -100 q 249 -129 251 -119 q 244 -147 246 -139 q 245 -160 242 -156 q 260 -167 249 -165 q 330 -132 301 -169 q 386 0 358 -94 l 283 0 l 21 722 l 215 722 l 422 106 l 643 722 m 468 781 q 415 802 438 781 q 393 854 393 824 q 415 906 393 885 q 468 928 438 928 q 519 906 497 928 q 540 854 540 885 q 519 802 540 824 q 468 781 497 781 m 263 781 q 210 802 232 781 q 188 854 188 824 q 210 906 188 885 q 263 928 232 928 q 313 906 292 928 q 335 854 335 885 q 313 802 335 824 q 263 781 292 781 z "},"Đ":{"ha":846,"x_min":43,"x_max":775,"o":"m 343 0 l 113 0 l 113 438 l 43 438 l 43 496 l 113 496 l 113 1011 l 343 1011 q 649 863 522 1011 q 775 506 775 715 q 649 148 775 296 q 343 0 522 0 m 293 953 l 293 496 l 468 496 l 468 438 l 293 438 l 293 58 l 343 58 q 515 189 443 58 q 588 506 588 319 q 515 822 588 692 q 343 953 443 953 l 293 953 z "},"đ":{"ha":782,"x_min":56,"x_max":781,"o":"m 683 1028 l 683 924 l 781 924 l 781 865 l 683 865 l 683 0 l 514 43 q 358 -17 468 -17 q 319 -14 344 -17 q 126 101 197 0 q 56 360 56 203 q 140 632 56 528 q 361 736 225 736 q 511 693 442 736 l 511 865 l 356 865 l 356 924 l 511 924 l 511 1028 l 683 1028 m 514 99 l 511 643 q 399 689 442 689 q 279 608 322 689 q 236 388 236 528 q 274 158 236 253 q 372 40 311 64 q 408 35 388 35 q 514 99 474 35 z "},"ı":{"ha":271,"x_min":56,"x_max":215,"o":"m 56 722 l 215 722 l 215 0 l 56 0 l 56 722 z "},"Ł":{"ha":663,"x_min":28,"x_max":633,"o":"m 633 0 l 113 0 l 113 293 l 58 258 l 28 307 l 113 363 l 113 1011 l 293 1011 l 293 479 l 382 536 l 413 488 l 293 410 l 293 57 l 428 56 q 571 74 521 56 q 633 138 621 92 l 633 0 z "},"ł":{"ha":369,"x_min":-26,"x_max":396,"o":"m 271 1028 l 271 426 l 396 426 l 396 368 l 271 368 l 271 0 l 97 0 l 97 368 l -26 368 l -26 426 l 97 426 l 97 1028 l 271 1028 z "},"Œ":{"ha":1444,"x_min":69,"x_max":1360,"o":"m 1360 0 l 839 0 l 839 179 q 691 38 779 89 q 503 -14 603 -14 q 196 138 322 -14 q 69 506 69 289 q 196 874 69 722 q 503 1025 322 1025 q 691 974 603 1025 q 839 832 779 922 l 839 1011 l 1360 1011 l 1360 874 q 1290 933 1346 911 q 1154 954 1233 956 l 1019 954 l 1019 606 l 1210 606 q 1296 633 1265 606 l 1296 524 q 1210 551 1264 553 l 1019 551 l 1019 57 l 1154 56 q 1297 74 1247 56 q 1360 138 1347 92 l 1360 0 m 260 475 q 372 160 283 285 q 561 47 461 35 q 715 203 661 60 q 744 538 769 347 q 632 851 721 726 q 443 964 543 976 q 330 888 378 956 q 263 710 282 819 q 260 475 243 600 z "},"œ":{"ha":1249,"x_min":56,"x_max":1203,"o":"m 956 36 q 1073 67 1013 36 q 1175 153 1133 97 l 1199 122 q 1084 22 1161 57 q 925 -14 1007 -14 q 769 28 840 -14 q 650 143 697 69 q 534 28 604 69 q 383 -14 464 -14 q 151 96 247 -14 q 56 361 56 206 q 151 626 56 517 q 383 736 247 736 q 533 695 464 736 q 647 583 601 654 q 760 695 692 654 q 910 736 829 736 q 1119 633 1035 736 q 1203 371 1203 531 l 767 371 l 767 364 q 816 119 767 203 q 956 36 865 36 m 241 581 q 226 530 241 581 q 231 340 211 479 q 307 113 250 201 q 426 32 364 24 q 517 143 488 42 q 528 382 547 244 q 451 610 508 521 q 333 690 394 699 q 241 581 271 682 m 768 414 l 1029 414 q 998 610 1035 529 q 908 690 961 690 q 817 612 857 690 q 768 414 776 533 z "},"Š":{"ha":850,"x_min":63,"x_max":783,"o":"m 201 167 q 276 79 217 114 q 413 44 336 44 q 569 97 507 44 q 626 232 631 150 q 594 318 624 282 q 517 376 564 354 q 416 416 471 397 q 306 456 361 435 q 206 507 251 478 q 133 586 161 536 q 103 703 104 636 q 192 928 100 835 q 436 1028 285 1022 l 449 1028 q 631 983 551 1028 q 738 864 710 939 q 735 753 760 800 q 660 696 711 707 q 635 693 643 693 q 563 721 592 693 q 543 783 535 749 q 563 813 547 804 q 594 821 579 821 q 618 829 610 821 q 621 858 626 838 q 553 936 607 903 q 438 969 499 969 l 435 969 q 302 903 354 968 q 254 763 250 838 q 287 681 257 715 q 363 627 317 647 q 463 590 408 607 q 573 552 518 574 q 673 501 628 531 q 748 421 718 472 q 779 299 778 369 q 681 71 783 156 q 411 -14 579 -14 q 186 40 278 -14 q 75 178 94 93 q 85 278 63 233 q 158 333 108 322 q 183 336 175 336 q 256 308 226 336 q 276 244 285 279 q 256 216 272 225 q 226 207 240 207 q 203 198 211 207 q 201 167 194 189 m 518 1108 l 388 1108 l 247 1310 l 454 1168 l 658 1310 l 518 1108 z "},"š":{"ha":653,"x_min":51,"x_max":597,"o":"m 322 -14 q 140 23 210 -14 q 58 122 69 60 q 72 203 51 165 q 128 247 92 240 q 193 229 164 254 q 214 169 222 204 q 201 149 210 156 q 183 143 192 143 q 167 138 174 143 q 160 119 160 132 q 210 56 161 82 q 313 29 258 29 l 319 29 q 408 64 374 31 q 440 140 442 97 q 401 209 439 175 q 309 274 363 243 q 202 339 256 304 q 113 425 149 374 q 78 538 76 476 q 153 680 81 625 q 346 736 225 735 l 351 736 q 507 701 444 736 q 581 604 569 667 q 569 520 589 558 q 513 475 550 482 q 499 474 508 474 q 442 498 465 474 q 426 551 419 522 q 458 581 432 571 q 481 618 485 590 q 363 693 471 693 l 354 693 q 256 664 294 692 q 218 596 218 636 q 257 522 218 558 q 352 451 296 485 q 464 381 408 418 q 558 290 519 343 q 597 174 597 236 q 525 36 597 86 q 322 -14 453 -14 m 392 792 l 261 792 l 121 993 l 328 851 l 532 993 l 392 792 z "},"Ÿ":{"ha":840,"x_min":28,"x_max":813,"o":"m 28 1011 l 233 1011 l 500 503 l 746 1014 l 813 1014 l 526 414 l 526 0 l 344 0 l 344 393 l 28 1011 m 525 1069 q 472 1091 494 1069 q 450 1143 450 1113 q 472 1195 450 1174 q 525 1217 494 1217 q 576 1195 554 1217 q 597 1143 597 1174 q 576 1091 597 1113 q 525 1069 554 1069 m 318 1069 q 265 1091 288 1069 q 243 1143 243 1113 q 265 1195 243 1174 q 318 1217 288 1217 q 369 1195 347 1217 q 390 1143 390 1174 q 369 1091 390 1113 q 318 1069 347 1069 z "},"Ž":{"ha":808,"x_min":56,"x_max":753,"o":"m 57 0 l 56 0 l 514 954 l 303 954 q 167 933 224 956 q 97 874 111 911 l 97 1011 l 744 1011 l 297 56 l 547 56 q 683 78 626 56 q 753 138 739 100 l 753 0 l 56 0 l 57 0 m 469 1081 l 339 1081 l 199 1282 l 406 1140 l 610 1282 l 469 1081 z "},"ž":{"ha":596,"x_min":42,"x_max":554,"o":"m 554 0 l 42 0 l 42 39 l 367 676 l 244 676 q 74 610 104 676 l 74 722 l 543 722 l 543 683 l 219 46 l 356 46 q 554 113 515 46 l 554 0 m 364 792 l 232 792 l 92 993 l 299 851 l 504 993 l 364 792 z "},"ƒ":{"ha":532,"x_min":49,"x_max":510,"o":"m 294 738 l 294 722 l 482 722 l 482 681 l 294 681 l 294 0 l 121 0 l 121 681 l 49 681 l 49 722 l 121 722 q 189 922 121 838 q 354 1011 257 1007 l 360 1011 q 489 944 454 1011 q 500 856 510 901 q 457 797 490 811 q 426 790 440 790 q 383 807 401 790 q 364 846 364 824 q 378 876 364 861 q 397 907 393 892 q 398 958 408 938 q 361 978 388 978 l 358 978 q 308 924 322 976 q 294 738 294 872 z "},"ˆ":{"ha":524,"x_min":56,"x_max":467,"o":"m 326 1001 l 467 801 l 263 942 l 56 801 l 196 1001 l 326 1001 z "},"ˇ":{"ha":524,"x_min":56,"x_max":467,"o":"m 326 792 l 196 792 l 56 993 l 263 851 l 467 993 l 326 792 z "},"˘":{"ha":322,"x_min":56,"x_max":267,"o":"m 56 879 l 122 879 q 134 847 122 861 q 161 833 146 833 q 188 847 176 833 q 200 879 200 861 l 267 879 q 235 810 267 839 q 161 781 203 781 q 87 810 118 781 q 56 879 56 839 z "},"˙":{"ha":260,"x_min":56,"x_max":203,"o":"m 131 781 q 78 802 100 781 q 56 854 56 824 q 78 906 56 885 q 131 928 100 928 q 181 906 160 928 q 203 854 203 885 q 181 802 203 824 q 131 781 160 781 z "},"˚":{"ha":322,"x_min":56,"x_max":267,"o":"m 188 911 q 182 918 188 911 q 161 925 176 925 q 134 911 146 925 q 122 879 122 897 q 134 847 122 861 q 161 833 146 833 q 188 847 176 833 q 200 879 200 861 q 188 911 200 897 m 161 781 q 87 810 118 781 q 56 879 56 839 q 87 949 56 919 q 161 978 118 978 q 235 949 203 978 q 267 879 267 919 q 235 810 267 839 q 161 781 203 781 z "},"˛":{"ha":404,"x_min":54,"x_max":347,"o":"m 57 -190 q 105 -83 54 -135 q 246 0 156 -31 l 293 0 q 163 -187 163 -82 q 182 -259 163 -233 q 236 -285 201 -285 q 311 -250 274 -285 l 347 -279 q 231 -318 290 -318 q 57 -190 64 -318 z "},"˜":{"ha":463,"x_min":56,"x_max":407,"o":"m 300 758 q 253 767 279 758 q 190 792 228 775 q 147 810 151 808 q 124 814 135 814 q 56 781 99 814 q 76 831 68 813 q 108 869 85 849 q 161 890 132 890 q 244 869 188 890 l 300 849 q 332 844 317 844 q 407 872 365 844 q 385 822 394 842 q 351 781 375 803 q 300 758 328 758 z "},"˝":{"ha":529,"x_min":56,"x_max":474,"o":"m 231 790 l 344 994 l 474 994 l 290 781 l 231 790 m 56 790 l 169 994 l 299 994 l 115 781 l 56 790 z "},"μ":{"ha":672,"x_min":56,"x_max":615,"o":"m 615 0 l 457 0 l 457 75 q 281 -14 388 -14 q 179 11 225 -14 l 214 -236 l 56 -236 l 56 722 l 214 722 l 214 207 q 304 29 214 29 q 399 76 351 29 q 457 181 446 124 l 457 722 l 615 722 l 615 0 z "},"–":{"ha":533,"x_min":56,"x_max":478,"o":"m 478 368 l 56 368 l 56 426 l 478 426 l 478 368 z "},"—":{"ha":901,"x_min":56,"x_max":846,"o":"m 846 368 l 56 368 l 56 426 l 846 426 l 846 368 z "},"‘":{"ha":299,"x_min":56,"x_max":242,"o":"m 242 833 q 215 769 242 796 q 150 742 188 742 q 83 769 111 742 q 56 833 56 796 q 97 946 56 892 q 193 1025 138 1000 l 210 1022 q 150 928 156 979 q 215 900 188 928 q 242 833 242 872 z "},"’":{"ha":299,"x_min":56,"x_max":242,"o":"m 56 933 q 83 998 56 971 q 149 1025 110 1025 q 215 998 188 1025 q 242 933 242 971 q 201 821 242 875 q 104 742 160 767 l 88 744 q 149 839 140 786 q 83 867 110 839 q 56 933 56 894 z "},"‚":{"ha":299,"x_min":56,"x_max":242,"o":"m 83 19 q 69 32 83 19 q 56 85 56 46 q 83 151 56 124 q 149 178 110 178 q 215 151 188 178 q 242 85 242 124 q 201 -27 242 26 q 104 -107 160 -81 l 88 -104 q 149 -8 140 -60 q 83 19 110 -8 z "},"“":{"ha":531,"x_min":56,"x_max":475,"o":"m 475 833 q 447 769 475 796 q 382 742 419 742 q 315 769 343 742 q 288 833 288 796 q 328 946 288 892 q 425 1025 369 1000 l 443 1022 q 382 928 388 978 q 447 900 419 928 q 475 833 475 872 m 242 833 q 215 769 242 796 q 150 742 188 742 q 83 769 111 742 q 56 833 56 796 q 97 946 56 892 q 193 1025 138 1000 l 210 1022 q 150 928 156 979 q 215 900 188 928 q 242 833 242 872 z "},"”":{"ha":531,"x_min":56,"x_max":475,"o":"m 56 933 q 83 998 56 971 q 149 1025 110 1025 q 215 998 188 1025 q 242 933 242 971 q 201 821 242 875 q 104 742 160 767 l 88 744 q 149 839 140 786 q 83 867 110 839 q 56 933 56 894 m 288 933 q 315 998 288 971 q 381 1025 343 1025 q 447 998 419 1025 q 475 933 475 971 q 434 821 475 875 q 338 742 393 767 l 319 744 q 381 839 375 789 q 315 867 343 839 q 288 933 288 894 z "},"„":{"ha":531,"x_min":56,"x_max":475,"o":"m 83 19 q 69 32 83 19 q 56 85 56 46 q 83 151 56 124 q 149 178 110 178 q 215 151 188 178 q 242 85 242 124 q 201 -27 242 26 q 104 -107 160 -81 l 88 -104 q 149 -8 140 -60 q 83 19 110 -8 m 315 19 q 301 32 315 19 q 288 85 288 46 q 315 151 288 124 q 381 178 343 178 q 447 151 419 178 q 475 85 475 124 q 434 -27 475 26 q 338 -107 393 -81 l 319 -104 q 381 -8 375 -58 q 315 19 343 -8 z "},"†":{"ha":568,"x_min":56,"x_max":513,"o":"m 256 689 l 56 689 l 56 747 l 256 747 l 256 1011 l 313 1011 l 313 747 l 513 747 l 513 689 l 313 689 l 313 0 l 256 0 l 256 689 z "},"‡":{"ha":568,"x_min":56,"x_max":513,"o":"m 256 689 l 56 689 l 56 747 l 256 747 l 256 1011 l 313 1011 l 313 747 l 513 747 l 513 689 l 313 689 l 313 435 l 513 435 l 513 378 l 313 378 l 313 0 l 256 0 l 256 378 l 56 378 l 56 435 l 256 435 l 256 689 z "},"•":{"ha":326,"x_min":56,"x_max":271,"o":"m 56 426 q 88 501 56 469 q 163 533 119 533 q 240 501 208 533 q 271 426 271 469 q 240 349 271 381 q 163 318 208 318 q 87 349 118 318 q 56 426 56 381 z "},"…":{"ha":824,"x_min":56,"x_max":768,"o":"m 553 94 q 584 170 553 139 q 660 201 615 201 q 736 170 704 201 q 768 94 768 139 q 736 17 768 49 q 660 -14 704 -14 q 584 17 615 -14 q 553 94 553 49 m 304 94 q 335 170 304 139 q 411 201 367 201 q 488 170 456 201 q 519 94 519 139 q 488 17 519 49 q 411 -14 456 -14 q 335 17 367 -14 q 304 94 304 49 m 56 94 q 87 170 56 139 q 163 201 118 201 q 240 170 208 201 q 271 94 271 139 q 240 17 271 49 q 163 -14 208 -14 q 87 17 118 -14 q 56 94 56 49 z "},"‰":{"ha":1314,"x_min":56,"x_max":1257,"o":"m 594 358 q 584 330 594 358 q 574 218 574 301 q 594 80 574 135 q 646 25 615 25 q 697 80 676 25 q 718 218 718 135 q 698 359 718 304 q 646 414 678 414 q 594 358 615 414 m 464 218 q 514 388 464 324 q 646 453 564 453 q 778 388 728 453 q 828 218 828 324 q 778 50 828 114 q 646 -14 728 -14 q 514 50 564 -14 q 464 218 464 114 m 186 931 q 176 903 186 931 q 165 792 165 875 q 186 653 165 708 q 238 599 207 599 q 289 653 268 599 q 310 792 310 708 q 290 932 310 878 q 238 986 269 986 q 186 931 207 986 m 615 1011 l 674 1011 l 274 0 l 215 0 l 615 1011 m 56 792 q 106 961 56 897 q 238 1025 156 1025 q 369 961 319 1025 q 419 792 419 897 q 369 624 419 688 q 238 560 319 560 q 106 624 156 560 q 56 792 56 688 m 1024 358 q 1013 330 1024 358 q 1003 218 1003 301 q 1024 80 1003 135 q 1075 25 1044 25 q 1126 80 1106 25 q 1147 218 1147 135 q 1127 359 1147 304 q 1075 414 1107 414 q 1024 358 1044 414 m 893 218 q 943 388 893 324 q 1075 453 993 453 q 1207 388 1157 453 q 1257 218 1257 324 q 1207 50 1257 114 q 1075 -14 1157 -14 q 943 50 993 -14 q 893 218 893 114 z "},"‹":{"ha":372,"x_min":56,"x_max":315,"o":"m 315 443 l 315 397 l 79 278 l 315 157 l 315 111 l 56 240 l 56 315 l 315 443 z "},"›":{"ha":372,"x_min":56,"x_max":315,"o":"m 293 278 l 56 397 l 56 443 l 315 315 l 315 240 l 56 111 l 56 157 l 293 278 z "},"⁄":{"ha":569,"x_min":56,"x_max":514,"o":"m 56 0 l 456 1011 l 514 1011 l 114 0 l 56 0 z "},"€":{"ha":6289,"x_min":69,"x_max":697,"o":"m 397 274 q 511 106 438 171 q 697 -3 585 40 q 597 -14 654 -14 q 358 64 460 -14 q 208 274 257 142 l 69 274 l 69 331 l 190 331 q 171 497 171 415 q 176 585 171 546 l 69 585 l 69 643 l 185 643 q 336 917 221 810 q 617 1025 451 1025 q 697 1019 663 1025 q 482 894 569 1006 q 369 643 394 782 l 567 643 l 567 585 l 363 585 q 358 507 358 547 q 381 331 358 408 l 567 331 l 567 274 l 397 274 z "},"™":{"ha":1253,"x_min":56,"x_max":1197,"o":"m 56 922 l 56 1013 l 486 1013 l 486 922 q 351 975 468 975 l 331 975 l 331 353 l 213 353 l 213 975 l 190 975 q 56 922 75 975 m 796 394 l 592 940 l 592 353 l 554 353 l 554 1014 l 682 1014 l 892 463 l 1083 1014 l 1197 1014 l 1197 353 l 1078 353 l 1078 896 l 903 394 l 796 394 z "},"−":{"ha":568,"x_min":56,"x_max":513,"o":"m 513 353 l 56 353 l 56 410 l 513 410 l 513 353 z "},"ﬁ":{"ha":794,"x_min":49,"x_max":733,"o":"m 294 736 l 294 722 l 708 722 l 708 0 l 535 0 l 535 681 l 294 681 l 294 0 l 121 0 l 121 681 l 49 681 l 49 722 l 121 722 q 212 924 121 840 q 447 1010 303 1008 l 454 1010 q 604 988 538 1010 q 694 931 671 965 q 707 817 733 867 q 628 768 681 768 q 558 788 583 768 q 533 836 533 808 q 543 893 532 864 q 528 941 556 918 q 446 964 500 964 l 442 964 q 331 892 367 963 q 294 736 294 822 z "},"ﬂ":{"ha":835,"x_min":49,"x_max":736,"o":"m 294 736 l 294 722 l 451 722 l 451 681 l 294 681 l 294 0 l 121 0 l 121 681 l 49 681 l 49 722 l 119 722 q 211 924 119 840 q 447 1010 303 1008 l 454 1010 q 622 988 540 1010 q 736 931 703 965 l 736 0 l 563 0 l 563 931 q 453 964 540 964 l 442 964 q 331 892 367 963 q 294 736 294 822 z "}}}
